<svg width="50" height="50" viewBox="0 0 50 50" fill="none" xmlns="http://www.w3.org/2000/svg">
<path d="M25 47.5C37.4264 47.5 47.5 37.4264 47.5 25C47.5 12.5736 37.4264 2.5 25 2.5C12.5736 2.5 2.5 12.5736 2.5 25C2.5 37.4264 12.5736 47.5 25 47.5Z" fill="#5F2EEA" stroke="#F9FAFA" stroke-width="5"/>
<path d="M29.9587 22.9582C30.8624 22.2087 31.439 21.0778 31.439 19.8148C31.439 17.5635 29.6074 15.7319 27.3561 15.7319C25.1048 15.7319 23.2732 17.5635 23.2732 19.8148C23.2732 20.1091 23.3048 20.3961 23.3642 20.6728C23.1317 20.6316 22.8925 20.61 22.6484 20.61C20.3971 20.61 18.5655 22.4415 18.5655 24.6928C18.5655 25.9557 19.142 27.0865 20.0455 27.836C17.518 28.8665 15.7317 31.3503 15.7317 34.2439H17.1802C17.1802 31.2287 19.6332 28.7757 22.6483 28.7757C24.8997 28.7757 26.7312 26.9441 26.7312 24.6928C26.7312 24.3986 26.6996 24.1115 26.6402 23.8348C26.8727 23.876 27.1119 23.8977 27.356 23.8977C29.1329 23.8977 30.7139 24.7501 31.7132 26.0669L32.6948 24.974C31.9693 24.0936 31.0306 23.3954 29.9587 22.9582ZM22.6484 27.3272C21.1958 27.3272 20.014 26.1454 20.014 24.6928C20.014 23.2402 21.1958 22.0585 22.6484 22.0585C24.1009 22.0585 25.2827 23.2403 25.2827 24.6928C25.2827 26.1454 24.1009 27.3272 22.6484 27.3272ZM27.3561 22.4491C25.9035 22.4491 24.7217 21.2674 24.7217 19.8148C24.7217 18.3622 25.9035 17.1804 27.3561 17.1804C28.8086 17.1804 29.9904 18.3622 29.9904 19.8148C29.9904 21.2674 28.8087 22.4491 27.3561 22.4491Z" fill="white"/>
<path d="M33.1902 26.5898L28.1591 32.1914L25.32 29.4888L24.3213 30.538L28.2405 34.2686L34.2679 27.5578L33.1902 26.5898Z" fill="white"/>
</svg>
