<svg width="26" height="26" viewBox="0 0 26 26" fill="none" xmlns="http://www.w3.org/2000/svg">
<g clip-path="url(#clip0_101_5120)">
<path d="M16.25 4.875C16.681 4.875 17.0943 5.0462 17.399 5.35095C17.7038 5.6557 17.875 6.06902 17.875 6.5V19.5C17.875 19.931 17.7038 20.3443 17.399 20.649C17.0943 20.9538 16.681 21.125 16.25 21.125H9.75C9.31902 21.125 8.9057 20.9538 8.60095 20.649C8.29621 20.3443 8.125 19.931 8.125 19.5V6.5C8.125 6.06902 8.29621 5.6557 8.60095 5.35095C8.9057 5.0462 9.31902 4.875 9.75 4.875H16.25ZM9.75 3.25C8.88805 3.25 8.0614 3.59241 7.4519 4.2019C6.84241 4.8114 6.5 5.63805 6.5 6.5V19.5C6.5 20.362 6.84241 21.1886 7.4519 21.7981C8.0614 22.4076 8.88805 22.75 9.75 22.75H16.25C17.112 22.75 17.9386 22.4076 18.5481 21.7981C19.1576 21.1886 19.5 20.362 19.5 19.5V6.5C19.5 5.63805 19.1576 4.8114 18.5481 4.2019C17.9386 3.59241 17.112 3.25 16.25 3.25H9.75Z" fill="#5F2EEA"/>
<path d="M13 19.4998C13.431 19.4998 13.8443 19.3286 14.1491 19.0238C14.4538 18.7191 14.625 18.3058 14.625 17.8748C14.625 17.4438 14.4538 17.0305 14.1491 16.7257C13.8443 16.421 13.431 16.2498 13 16.2498C12.569 16.2498 12.1557 16.421 11.851 16.7257C11.5462 17.0305 11.375 17.4438 11.375 17.8748C11.375 18.3058 11.5462 18.7191 11.851 19.0238C12.1557 19.3286 12.569 19.4998 13 19.4998ZM2.59839 6.59403C2.69273 6.64394 2.77631 6.71195 2.84436 6.79418C2.9124 6.87641 2.96358 6.97124 2.99497 7.07325C3.02636 7.17526 3.03734 7.28246 3.02729 7.38872C3.01724 7.49497 2.98635 7.59821 2.93639 7.69253C2.07229 9.32792 1.62203 11.1501 1.62501 12.9998C1.62501 14.9173 2.09951 16.7243 2.93639 18.307C3.03724 18.4975 3.05828 18.7203 2.9949 18.9263C2.93151 19.1323 2.78888 19.3047 2.59839 19.4055C2.4079 19.5064 2.18514 19.5274 1.97914 19.464C1.77313 19.4006 1.60074 19.258 1.49989 19.0675C0.511927 17.1978 -0.00303477 15.1145 1.3454e-05 12.9998C1.3454e-05 10.8109 0.542763 8.7439 1.49989 6.93202C1.5498 6.83768 1.61782 6.7541 1.70005 6.68606C1.78227 6.61801 1.8771 6.56683 1.97911 6.53544C2.08112 6.50405 2.18832 6.49307 2.29458 6.50312C2.40084 6.51318 2.50407 6.54406 2.59839 6.59403ZM23.4016 6.59403C23.496 6.54406 23.5992 6.51318 23.7054 6.50312C23.8117 6.49307 23.9189 6.50405 24.0209 6.53544C24.1229 6.56683 24.2178 6.61801 24.3 6.68606C24.3822 6.7541 24.4502 6.83768 24.5001 6.93202C25.4882 8.80175 26.0031 10.885 26 12.9998C26.0031 15.1145 25.4882 17.1978 24.5001 19.0675C24.3993 19.258 24.2269 19.4006 24.0209 19.464C23.8149 19.5274 23.5921 19.5064 23.4016 19.4055C23.2111 19.3047 23.0685 19.1323 23.0051 18.9263C22.9417 18.7203 22.9628 18.4975 23.0636 18.307C23.9277 16.6716 24.378 14.8494 24.375 12.9998C24.375 11.0823 23.9005 9.27528 23.0636 7.69253C23.0137 7.59821 22.9828 7.49497 22.9727 7.38872C22.9627 7.28246 22.9737 7.17526 23.0051 7.07325C23.0364 6.97124 23.0876 6.87641 23.1557 6.79418C23.2237 6.71195 23.3073 6.64394 23.4016 6.59403ZM4.96764 8.99252C5.06712 9.03131 5.15798 9.08933 5.23502 9.16326C5.31207 9.23719 5.37378 9.32557 5.41665 9.42337C5.45951 9.52116 5.48267 9.62645 5.48481 9.7332C5.48696 9.83996 5.46804 9.94609 5.42914 10.0455C5.06179 10.9871 4.87385 11.9891 4.87501 12.9998C4.87501 14.043 5.07001 15.0391 5.42751 15.954C5.47286 16.0545 5.4973 16.1631 5.49936 16.2732C5.50141 16.3834 5.48104 16.4928 5.43947 16.5949C5.39791 16.6969 5.33602 16.7895 5.25757 16.8668C5.17912 16.9442 5.08575 17.0048 4.98314 17.045C4.88053 17.0852 4.77082 17.104 4.66069 17.1005C4.55055 17.0969 4.4423 17.071 4.3425 17.0242C4.24271 16.9775 4.15346 16.911 4.08018 16.8287C4.00691 16.7464 3.95114 16.6501 3.91626 16.5455C3.47502 15.4155 3.24905 14.2129 3.25001 12.9998C3.25001 11.7501 3.48564 10.5541 3.91626 9.45402C3.99462 9.25351 4.14934 9.09228 4.34647 9.00575C4.5436 8.91923 4.76701 8.91447 4.96764 8.99252ZM21.0324 8.99252C21.1318 8.95362 21.238 8.93471 21.3447 8.93685C21.4515 8.93899 21.5567 8.96216 21.6545 9.00502C21.7523 9.04788 21.8407 9.1096 21.9147 9.18664C21.9886 9.26368 22.0466 9.35454 22.0854 9.45402C22.5144 10.5541 22.75 11.7501 22.75 12.9998C22.75 14.2494 22.5144 15.4454 22.0838 16.5455C21.998 16.7354 21.8427 16.8851 21.6497 16.9636C21.4568 17.0422 21.2411 17.0437 21.0471 16.9678C20.8531 16.8919 20.6957 16.7443 20.6074 16.5557C20.5191 16.367 20.5066 16.1516 20.5725 15.954C20.93 15.0391 21.125 14.043 21.125 12.9998C21.125 11.9565 20.93 10.9604 20.5725 10.0455C20.4939 9.84491 20.4981 9.62126 20.5844 9.42378C20.6706 9.22631 20.8318 9.07118 21.0324 8.99252Z" fill="#5F2EEA"/>
</g>
<defs>
<clipPath id="clip0_101_5120">
<rect width="26" height="26" fill="white"/>
</clipPath>
</defs>
</svg>
