<svg width="229" height="56" viewBox="0 0 229 56" fill="none" xmlns="http://www.w3.org/2000/svg">
<path opacity="0.9" d="M8.325 8L1.5 0.149999H6.125L12.375 7.5V0.149999H16.15V7.475L22.4 0.149999H27.025L20.125 7.9L27.675 18H22.825L17.15 10.2L16.15 11.375V18H12.375V11.375L11.15 10.225L5.675 18H0.85L8.325 8ZM29.2387 0.149999H33.1387V12.525H33.2137L40.0137 0.149999H44.4137V18H40.5137V5.6H40.4387L33.6387 18H29.2387V0.149999ZM48.1416 18.2C47.5249 18.2 46.9583 18.1 46.4416 17.9V14.7C46.5083 14.7333 46.5999 14.7583 46.7166 14.775C46.8499 14.7917 46.9583 14.8 47.0416 14.8C47.6749 14.8 48.1916 14.5917 48.5916 14.175C49.0083 13.7583 49.3249 13.1083 49.5416 12.225C49.7749 11.3417 49.9333 10.2 50.0166 8.8C50.0999 7.4 50.1416 5.71667 50.1416 3.75V0.149999H62.9916V18H59.0916V3.45H53.8666C53.8166 5.51667 53.7416 7.45 53.6416 9.25C53.5583 11.05 53.3416 12.6167 52.9916 13.95C52.6416 15.2667 52.0916 16.3083 51.3416 17.075C50.5916 17.825 49.5249 18.2 48.1416 18.2ZM71.3207 0.149999H75.3457L82.0207 18H77.9457L76.5957 14.025H69.9207L68.5207 18H64.5707L71.3207 0.149999ZM75.5707 11.1L73.3207 4.55H73.2707L70.9457 11.1H75.5707ZM87.31 10.95C86.1266 10.65 85.1683 10.05 84.435 9.15C83.7183 8.23333 83.36 7.05 83.36 5.6C83.36 4.65 83.5266 3.83333 83.86 3.15C84.1933 2.46667 84.635 1.9 85.185 1.45C85.7516 0.999999 86.4016 0.675 87.135 0.474999C87.885 0.258332 88.6683 0.149999 89.485 0.149999H98.235V18H94.335V11.275H91.56L86.81 18H81.91L87.31 10.95ZM94.335 8.35V3.225H90.46C90.0433 3.225 89.635 3.25833 89.235 3.325C88.8516 3.375 88.5016 3.49167 88.185 3.675C87.885 3.84167 87.6433 4.08333 87.46 4.4C87.2766 4.7 87.185 5.10833 87.185 5.625C87.185 6.175 87.2766 6.625 87.46 6.975C87.66 7.325 87.9183 7.60833 88.235 7.825C88.5516 8.025 88.9183 8.16667 89.335 8.25C89.7516 8.31667 90.185 8.35 90.635 8.35H94.335ZM2.725 33.15H6.65V40H13.875V33.15H17.8V51H13.875V43.3H6.65V51H2.725V33.15ZM21.2553 33.15H34.6053V36.45H25.1803V40.275H33.8303V43.325H25.1803V47.7H34.8053V51H21.2553V33.15ZM35.9412 47.7H37.4412C37.9579 47 38.3745 46.2417 38.6912 45.425C39.0245 44.6083 39.2745 43.7167 39.4412 42.75C39.6245 41.7833 39.7412 40.7333 39.7912 39.6C39.8579 38.4667 39.8912 37.2417 39.8912 35.925V33.15H52.8412V47.7H54.7912V55.075H51.2412V51H39.4912V55.075H35.9412V47.7ZM48.9162 47.7V36.375H43.6412V36.7C43.6412 37.9167 43.6079 39.0417 43.5412 40.075C43.4912 41.1083 43.3912 42.075 43.2412 42.975C43.1079 43.8583 42.9079 44.6917 42.6412 45.475C42.3912 46.2417 42.0662 46.9833 41.6662 47.7H48.9162ZM56.7777 33.15H65.1777C66.0277 33.15 66.8027 33.225 67.5027 33.375C68.2027 33.525 68.8027 33.775 69.3027 34.125C69.8027 34.4583 70.1861 34.9083 70.4527 35.475C70.7361 36.0417 70.8777 36.7417 70.8777 37.575C70.8777 38.475 70.6694 39.225 70.2527 39.825C69.8527 40.425 69.2527 40.9167 68.4527 41.3C69.5527 41.6167 70.3694 42.175 70.9027 42.975C71.4527 43.7583 71.7277 44.7083 71.7277 45.825C71.7277 46.725 71.5527 47.5083 71.2027 48.175C70.8527 48.825 70.3777 49.3583 69.7777 49.775C69.1944 50.1917 68.5194 50.5 67.7527 50.7C67.0027 50.9 66.2277 51 65.4277 51H56.7777V33.15ZM64.9027 47.95C65.2861 47.95 65.6527 47.9167 66.0027 47.85C66.3527 47.7667 66.6611 47.6417 66.9277 47.475C67.1944 47.2917 67.4027 47.05 67.5527 46.75C67.7194 46.45 67.8027 46.0667 67.8027 45.6C67.8027 44.6833 67.5444 44.0333 67.0277 43.65C66.5111 43.25 65.8277 43.05 64.9777 43.05H60.7027V47.95H64.9027ZM64.6777 40.375C65.3777 40.375 65.9527 40.2083 66.4027 39.875C66.8527 39.5417 67.0777 39 67.0777 38.25C67.0777 37.8333 67.0027 37.4917 66.8527 37.225C66.7027 36.9583 66.5027 36.75 66.2527 36.6C66.0027 36.45 65.7111 36.35 65.3777 36.3C65.0611 36.2333 64.7277 36.2 64.3777 36.2H60.7027V40.375H64.6777ZM74.3803 33.15H78.2803V45.525H78.3553L85.1553 33.15H89.5553V51H85.6553V38.6H85.5803L78.7803 51H74.3803V33.15ZM98.6082 41L91.7832 33.15H96.4082L102.658 40.5V33.15H106.433V40.475L112.683 33.15H117.308L110.408 40.9L117.958 51H113.108L107.433 43.2L106.433 44.375V51H102.658V44.375L101.433 43.225L95.9582 51H91.1332L98.6082 41ZM119.522 33.15H123.422V45.525H123.497L130.297 33.15H134.697V51H130.797V38.6H130.722L123.922 51H119.522V33.15ZM138.15 33.15H143.675L147.85 45.425H147.9L151.85 33.15H157.375V51H153.7V38.35H153.65L149.275 51H146.25L141.875 38.475H141.825V51H138.15V33.15ZM168.83 51.4C167.447 51.4 166.214 51.1667 165.13 50.7C164.047 50.2167 163.13 49.5583 162.38 48.725C161.63 47.8917 161.055 46.9167 160.655 45.8C160.255 44.6667 160.055 43.45 160.055 42.15C160.055 40.8333 160.255 39.6 160.655 38.45C161.055 37.3 161.63 36.3 162.38 35.45C163.13 34.6 164.047 33.9333 165.13 33.45C166.214 32.9667 167.447 32.725 168.83 32.725C170.197 32.725 171.422 32.9667 172.505 33.45C173.605 33.9333 174.53 34.6 175.28 35.45C176.03 36.3 176.605 37.3 177.005 38.45C177.405 39.6 177.605 40.8333 177.605 42.15C177.605 43.45 177.405 44.6667 177.005 45.8C176.605 46.9167 176.03 47.8917 175.28 48.725C174.53 49.5583 173.605 50.2167 172.505 50.7C171.422 51.1667 170.197 51.4 168.83 51.4ZM168.83 48.125C169.714 48.125 170.464 47.9583 171.08 47.625C171.697 47.275 172.197 46.8167 172.58 46.25C172.964 45.6833 173.239 45.05 173.405 44.35C173.589 43.6333 173.68 42.9 173.68 42.15C173.68 41.3667 173.589 40.6083 173.405 39.875C173.239 39.1417 172.964 38.4917 172.58 37.925C172.197 37.3417 171.697 36.8833 171.08 36.55C170.464 36.2 169.714 36.025 168.83 36.025C167.947 36.025 167.197 36.2 166.58 36.55C165.964 36.8833 165.464 37.3417 165.08 37.925C164.697 38.4917 164.414 39.1417 164.23 39.875C164.064 40.6083 163.98 41.3667 163.98 42.15C163.98 42.9 164.064 43.6333 164.23 44.35C164.414 45.05 164.697 45.6833 165.08 46.25C165.464 46.8167 165.964 47.275 166.58 47.625C167.197 47.9583 167.947 48.125 168.83 48.125ZM188.288 51.4C186.905 51.4 185.672 51.1667 184.588 50.7C183.505 50.2167 182.588 49.5583 181.838 48.725C181.088 47.8917 180.513 46.9167 180.113 45.8C179.713 44.6667 179.513 43.45 179.513 42.15C179.513 40.8333 179.713 39.6 180.113 38.45C180.513 37.3 181.088 36.3 181.838 35.45C182.588 34.6 183.505 33.9333 184.588 33.45C185.672 32.9667 186.905 32.725 188.288 32.725C189.255 32.725 190.18 32.8667 191.063 33.15C191.947 33.4333 192.73 33.85 193.413 34.4C194.113 34.9333 194.688 35.6 195.138 36.4C195.588 37.2 195.872 38.1167 195.988 39.15H192.188C192.122 38.7 191.972 38.2917 191.738 37.925C191.505 37.5417 191.213 37.2083 190.863 36.925C190.513 36.6417 190.113 36.425 189.663 36.275C189.23 36.1083 188.772 36.025 188.288 36.025C187.405 36.025 186.655 36.2 186.038 36.55C185.422 36.8833 184.922 37.3417 184.538 37.925C184.155 38.4917 183.872 39.1417 183.688 39.875C183.522 40.6083 183.438 41.3667 183.438 42.15C183.438 42.9 183.522 43.6333 183.688 44.35C183.872 45.05 184.155 45.6833 184.538 46.25C184.922 46.8167 185.422 47.275 186.038 47.625C186.655 47.9583 187.405 48.125 188.288 48.125C189.488 48.125 190.422 47.7583 191.088 47.025C191.772 46.2917 192.188 45.325 192.338 44.125H196.138C196.038 45.2583 195.78 46.275 195.363 47.175C194.947 48.0583 194.397 48.8167 193.713 49.45C193.03 50.0833 192.23 50.5667 191.313 50.9C190.397 51.2333 189.388 51.4 188.288 51.4ZM202.769 36.45H197.419V33.15H212.044V36.45H206.694V51H202.769V36.45ZM214.102 33.15H218.027V39.6H222.227C223.127 39.6 223.96 39.7167 224.727 39.95C225.494 40.1667 226.16 40.5083 226.727 40.975C227.294 41.4417 227.735 42.0333 228.052 42.75C228.385 43.4667 228.552 44.3083 228.552 45.275C228.552 46.2583 228.394 47.1083 228.077 47.825C227.76 48.5417 227.31 49.1417 226.727 49.625C226.16 50.0917 225.477 50.4417 224.677 50.675C223.877 50.8917 222.994 51 222.027 51H214.102V33.15ZM221.727 47.8C222.677 47.8 223.419 47.6083 223.952 47.225C224.485 46.8417 224.752 46.175 224.752 45.225C224.752 44.7583 224.677 44.3667 224.527 44.05C224.377 43.7167 224.16 43.45 223.877 43.25C223.61 43.05 223.285 42.9083 222.902 42.825C222.535 42.725 222.135 42.675 221.702 42.675H218.027V47.8H221.727Z" fill="black"/>
</svg>
