<svg width="304" height="101" viewBox="0 0 304 101" fill="none" xmlns="http://www.w3.org/2000/svg">
<path d="M4.59 11H1.17V0.994999H4.59C6.12 0.994999 7.355 1.47 8.295 2.42C9.245 3.37 9.72 4.565 9.72 6.005C9.72 7.455 9.245 8.65 8.295 9.59C7.355 10.53 6.12 11 4.59 11ZM4.59 9.89C5.77 9.89 6.705 9.52 7.395 8.78C8.085 8.04 8.43 7.115 8.43 6.005C8.43 4.885 8.09 3.955 7.41 3.215C6.73 2.475 5.79 2.105 4.59 2.105H2.415V9.89H4.59ZM14.8979 11.18C13.8179 11.18 12.9329 10.83 12.2429 10.13C11.5529 9.42 11.2079 8.5 11.2079 7.37C11.2079 6.31 11.5479 5.415 12.2279 4.685C12.9079 3.945 13.7579 3.575 14.7779 3.575C15.8479 3.575 16.6929 3.945 17.3129 4.685C17.9429 5.415 18.2579 6.34 18.2579 7.46V7.745H12.3929C12.4429 8.455 12.7029 9.05 13.1729 9.53C13.6429 10.01 14.2529 10.25 15.0029 10.25C15.9029 10.25 16.6479 9.945 17.2379 9.335L17.7779 10.07C17.0379 10.81 16.0779 11.18 14.8979 11.18ZM17.1479 6.92C17.1379 6.3 16.9279 5.745 16.5179 5.255C16.1079 4.755 15.5229 4.505 14.7629 4.505C14.0429 4.505 13.4729 4.75 13.0529 5.24C12.6429 5.73 12.4229 6.29 12.3929 6.92H17.1479ZM21.2051 11H20.0801V3.755H21.2051V4.925C21.8751 4.045 22.6801 3.605 23.6201 3.605V4.76C23.4801 4.73 23.3301 4.715 23.1701 4.715C22.8301 4.715 22.4601 4.835 22.0601 5.075C21.6601 5.315 21.3751 5.58 21.2051 5.87V11ZM30.1884 11H28.9434V0.994999H32.9634C33.9334 0.994999 34.6984 1.285 35.2584 1.865C35.8184 2.445 36.0984 3.16 36.0984 4.01C36.0984 4.86 35.8134 5.575 35.2434 6.155C34.6834 6.735 33.9234 7.025 32.9634 7.025H30.1884V11ZM32.8134 5.915C33.4034 5.915 33.8834 5.74 34.2534 5.39C34.6234 5.03 34.8084 4.57 34.8084 4.01C34.8084 3.45 34.6234 2.995 34.2534 2.645C33.8834 2.285 33.4034 2.105 32.8134 2.105H30.1884V5.915H32.8134ZM43.7171 11H42.5921V9.98C42.2921 10.32 41.9121 10.605 41.4521 10.835C41.0021 11.065 40.5221 11.18 40.0121 11.18C38.4721 11.18 37.7021 10.41 37.7021 8.87V3.755H38.8271V8.525C38.8271 9.125 38.9621 9.55 39.2321 9.8C39.5121 10.05 39.9171 10.175 40.4471 10.175C40.8671 10.175 41.2721 10.07 41.6621 9.86C42.0621 9.65 42.3721 9.39 42.5921 9.08V3.755H43.7171V11ZM51.9789 11H50.8539V6.26C50.8539 5.65 50.7139 5.22 50.4339 4.97C50.1539 4.71 49.7539 4.58 49.2339 4.58C48.8139 4.58 48.4039 4.69 48.0039 4.91C47.6139 5.13 47.3089 5.395 47.0889 5.705V11H45.9639V3.755H47.0889V4.805C47.3689 4.475 47.7439 4.19 48.2139 3.95C48.6839 3.7 49.1689 3.575 49.6689 3.575C51.2089 3.575 51.9789 4.355 51.9789 5.915V11ZM60.6006 11H59.1606L56.5506 7.745L55.3506 8.93V11H54.2256V0.994999H55.3506V7.61L59.1606 3.755H60.5856L57.3756 7.04L60.6006 11ZM63.7607 11.18C63.2307 11.18 62.8307 11.035 62.5607 10.745C62.2907 10.455 62.1557 10.035 62.1557 9.485V4.745H60.9557V3.755H62.1557V1.775H63.2807V3.755H64.7507V4.745H63.2807V9.245C63.2807 9.525 63.3407 9.75 63.4607 9.92C63.5907 10.09 63.7757 10.175 64.0157 10.175C64.3457 10.175 64.6007 10.075 64.7807 9.875L65.1107 10.715C64.7807 11.025 64.3307 11.18 63.7607 11.18ZM67.8548 10.64C67.8548 11.08 67.7398 11.5 67.5098 11.9C67.2798 12.31 66.9848 12.645 66.6248 12.905L66.0698 12.44C66.3198 12.28 66.5348 12.065 66.7148 11.795C66.9048 11.535 67.0148 11.285 67.0448 11.045C67.0048 11.065 66.9348 11.075 66.8348 11.075C66.6248 11.075 66.4498 11.005 66.3098 10.865C66.1798 10.715 66.1148 10.53 66.1148 10.31C66.1148 10.09 66.1898 9.9 66.3398 9.74C66.4998 9.58 66.6898 9.5 66.9098 9.5C67.1698 9.5 67.3898 9.605 67.5698 9.815C67.7598 10.015 67.8548 10.29 67.8548 10.64ZM79.6041 11H73.7091V0.994999H74.9541V9.89H79.6041V11ZM86.7483 10.085C86.0983 10.815 85.2333 11.18 84.1533 11.18C83.0733 11.18 82.2033 10.815 81.5433 10.085C80.8933 9.355 80.5683 8.45 80.5683 7.37C80.5683 6.29 80.8933 5.39 81.5433 4.67C82.2033 3.94 83.0733 3.575 84.1533 3.575C85.2333 3.575 86.0983 3.94 86.7483 4.67C87.4083 5.39 87.7383 6.29 87.7383 7.37C87.7383 8.45 87.4083 9.355 86.7483 10.085ZM82.3833 9.365C82.8233 9.905 83.4133 10.175 84.1533 10.175C84.8933 10.175 85.4783 9.905 85.9083 9.365C86.3383 8.815 86.5533 8.15 86.5533 7.37C86.5533 6.59 86.3383 5.93 85.9083 5.39C85.4783 4.85 84.8933 4.58 84.1533 4.58C83.4133 4.58 82.8233 4.855 82.3833 5.405C81.9533 5.945 81.7383 6.6 81.7383 7.37C81.7383 8.15 81.9533 8.815 82.3833 9.365ZM90.6973 11H89.5723V3.755H90.6973V4.925C91.3673 4.045 92.1723 3.605 93.1123 3.605V4.76C92.9723 4.73 92.8223 4.715 92.6623 4.715C92.3223 4.715 91.9523 4.835 91.5523 5.075C91.1523 5.315 90.8673 5.58 90.6973 5.87V11ZM97.7934 11.18C96.7134 11.18 95.8284 10.83 95.1384 10.13C94.4484 9.42 94.1034 8.5 94.1034 7.37C94.1034 6.31 94.4434 5.415 95.1234 4.685C95.8034 3.945 96.6534 3.575 97.6734 3.575C98.7434 3.575 99.5884 3.945 100.208 4.685C100.838 5.415 101.153 6.34 101.153 7.46V7.745H95.2884C95.3384 8.455 95.5984 9.05 96.0684 9.53C96.5384 10.01 97.1484 10.25 97.8984 10.25C98.7984 10.25 99.5434 9.945 100.133 9.335L100.673 10.07C99.9334 10.81 98.9734 11.18 97.7934 11.18ZM100.043 6.92C100.033 6.3 99.8234 5.745 99.4134 5.255C99.0034 4.755 98.4184 4.505 97.6584 4.505C96.9384 4.505 96.3684 4.75 95.9484 5.24C95.5384 5.73 95.3184 6.29 95.2884 6.92H100.043ZM112.846 11H111.721V6.08C111.721 5.08 111.276 4.58 110.386 4.58C110.026 4.58 109.666 4.69 109.306 4.91C108.946 5.13 108.666 5.39 108.466 5.69V11H107.341V6.08C107.341 5.08 106.896 4.58 106.006 4.58C105.656 4.58 105.301 4.69 104.941 4.91C104.591 5.13 104.311 5.395 104.101 5.705V11H102.976V3.755H104.101V4.805C104.281 4.525 104.596 4.25 105.046 3.98C105.496 3.71 105.961 3.575 106.441 3.575C106.971 3.575 107.401 3.7 107.731 3.95C108.061 4.2 108.281 4.525 108.391 4.925C108.611 4.565 108.946 4.25 109.396 3.98C109.846 3.71 110.321 3.575 110.821 3.575C112.171 3.575 112.846 4.305 112.846 5.765V11ZM120.247 11H119.002V0.994999H120.247V11ZM126.116 11.18C125.096 11.18 124.281 10.755 123.671 9.905V13.76H122.546V3.755H123.671V4.835C123.941 4.455 124.291 4.15 124.721 3.92C125.151 3.69 125.616 3.575 126.116 3.575C127.076 3.575 127.851 3.92 128.441 4.61C129.041 5.29 129.341 6.21 129.341 7.37C129.341 8.53 129.041 9.455 128.441 10.145C127.851 10.835 127.076 11.18 126.116 11.18ZM125.831 10.175C126.541 10.175 127.106 9.915 127.526 9.395C127.946 8.865 128.156 8.19 128.156 7.37C128.156 6.55 127.946 5.88 127.526 5.36C127.106 4.84 126.541 4.58 125.831 4.58C125.401 4.58 124.981 4.695 124.571 4.925C124.171 5.145 123.871 5.415 123.671 5.735V9.005C123.871 9.335 124.171 9.615 124.571 9.845C124.981 10.065 125.401 10.175 125.831 10.175ZM133.425 11.18C132.195 11.18 131.22 10.8 130.5 10.04L131.085 9.23C131.335 9.52 131.675 9.765 132.105 9.965C132.545 10.165 133 10.265 133.47 10.265C134.01 10.265 134.43 10.15 134.73 9.92C135.03 9.69 135.18 9.39 135.18 9.02C135.18 8.7 135.025 8.45 134.715 8.27C134.405 8.08 134.03 7.94 133.59 7.85C133.16 7.75 132.725 7.64 132.285 7.52C131.845 7.39 131.47 7.175 131.16 6.875C130.85 6.565 130.695 6.16 130.695 5.66C130.695 5.07 130.935 4.575 131.415 4.175C131.905 3.775 132.565 3.575 133.395 3.575C134.485 3.575 135.38 3.925 136.08 4.625L135.555 5.405C135.045 4.795 134.325 4.49 133.395 4.49C132.905 4.49 132.515 4.6 132.225 4.82C131.935 5.03 131.79 5.3 131.79 5.63C131.79 5.92 131.945 6.15 132.255 6.32C132.565 6.48 132.935 6.61 133.365 6.71C133.805 6.8 134.245 6.91 134.685 7.04C135.125 7.17 135.5 7.4 135.81 7.73C136.12 8.05 136.275 8.47 136.275 8.99C136.275 9.63 136.025 10.155 135.525 10.565C135.025 10.975 134.325 11.18 133.425 11.18ZM144.118 11H142.993V9.98C142.693 10.32 142.313 10.605 141.853 10.835C141.403 11.065 140.923 11.18 140.413 11.18C138.873 11.18 138.103 10.41 138.103 8.87V3.755H139.228V8.525C139.228 9.125 139.363 9.55 139.633 9.8C139.913 10.05 140.318 10.175 140.848 10.175C141.268 10.175 141.673 10.07 142.063 9.86C142.463 9.65 142.773 9.39 142.993 9.08V3.755H144.118V11ZM156.234 11H155.109V6.08C155.109 5.08 154.664 4.58 153.774 4.58C153.414 4.58 153.054 4.69 152.694 4.91C152.334 5.13 152.054 5.39 151.854 5.69V11H150.729V6.08C150.729 5.08 150.284 4.58 149.394 4.58C149.044 4.58 148.689 4.69 148.329 4.91C147.979 5.13 147.699 5.395 147.489 5.705V11H146.364V3.755H147.489V4.805C147.669 4.525 147.984 4.25 148.434 3.98C148.884 3.71 149.349 3.575 149.829 3.575C150.359 3.575 150.789 3.7 151.119 3.95C151.449 4.2 151.669 4.525 151.779 4.925C151.999 4.565 152.334 4.25 152.784 3.98C153.234 3.71 153.709 3.575 154.209 3.575C155.559 3.575 156.234 4.305 156.234 5.765V11ZM167.521 11H162.001V10.13L165.991 4.745H162.001V3.755H167.461V4.61L163.441 10.025H167.521V11ZM175.436 11H174.311V9.98C174.011 10.32 173.631 10.605 173.171 10.835C172.721 11.065 172.241 11.18 171.731 11.18C170.191 11.18 169.421 10.41 169.421 8.87V3.755H170.546V8.525C170.546 9.125 170.681 9.55 170.951 9.8C171.231 10.05 171.636 10.175 172.166 10.175C172.586 10.175 172.991 10.07 173.381 9.86C173.781 9.65 174.091 9.39 174.311 9.08V3.755H175.436V11ZM187.565 11H186.44V6.26C186.44 5.65 186.3 5.22 186.02 4.97C185.74 4.71 185.34 4.58 184.82 4.58C184.4 4.58 183.99 4.69 183.59 4.91C183.2 5.13 182.895 5.395 182.675 5.705V11H181.55V3.755H182.675V4.805C182.955 4.475 183.33 4.19 183.8 3.95C184.27 3.7 184.755 3.575 185.255 3.575C186.795 3.575 187.565 4.355 187.565 5.915V11ZM195.827 11H194.702V9.98C194.402 10.32 194.022 10.605 193.562 10.835C193.112 11.065 192.632 11.18 192.122 11.18C190.582 11.18 189.812 10.41 189.812 8.87V3.755H190.937V8.525C190.937 9.125 191.072 9.55 191.342 9.8C191.622 10.05 192.027 10.175 192.557 10.175C192.977 10.175 193.382 10.07 193.772 9.86C194.172 9.65 194.482 9.39 194.702 9.08V3.755H195.827V11ZM199.903 11.18C199.373 11.18 198.973 11.035 198.703 10.745C198.433 10.455 198.298 10.035 198.298 9.485V4.745H197.098V3.755H198.298V1.775H199.423V3.755H200.893V4.745H199.423V9.245C199.423 9.525 199.483 9.75 199.603 9.92C199.733 10.09 199.918 10.175 200.158 10.175C200.488 10.175 200.743 10.075 200.923 9.875L201.253 10.715C200.923 11.025 200.473 11.18 199.903 11.18ZM207.657 11H202.137V10.13L206.127 4.745H202.137V3.755H207.597V4.61L203.577 10.025H207.657V11ZM212.828 11.18C211.748 11.18 210.863 10.83 210.173 10.13C209.483 9.42 209.138 8.5 209.138 7.37C209.138 6.31 209.478 5.415 210.158 4.685C210.838 3.945 211.688 3.575 212.708 3.575C213.778 3.575 214.623 3.945 215.243 4.685C215.873 5.415 216.188 6.34 216.188 7.46V7.745H210.323C210.373 8.455 210.633 9.05 211.103 9.53C211.573 10.01 212.183 10.25 212.933 10.25C213.833 10.25 214.578 9.945 215.168 9.335L215.708 10.07C214.968 10.81 214.008 11.18 212.828 11.18ZM215.078 6.92C215.068 6.3 214.858 5.745 214.448 5.255C214.038 4.755 213.453 4.505 212.693 4.505C211.973 4.505 211.403 4.75 210.983 5.24C210.573 5.73 210.353 6.29 210.323 6.92H215.078ZM224.025 11H222.9V6.26C222.9 5.65 222.76 5.22 222.48 4.97C222.2 4.71 221.8 4.58 221.28 4.58C220.86 4.58 220.45 4.69 220.05 4.91C219.66 5.13 219.355 5.395 219.135 5.705V11H218.01V3.755H219.135V4.805C219.415 4.475 219.79 4.19 220.26 3.95C220.73 3.7 221.215 3.575 221.715 3.575C223.255 3.575 224.025 4.355 224.025 5.915V11ZM227.786 10.64C227.786 11.08 227.671 11.5 227.441 11.9C227.211 12.31 226.916 12.645 226.556 12.905L226.001 12.44C226.251 12.28 226.466 12.065 226.646 11.795C226.836 11.535 226.946 11.285 226.976 11.045C226.936 11.065 226.866 11.075 226.766 11.075C226.556 11.075 226.381 11.005 226.241 10.865C226.111 10.715 226.046 10.53 226.046 10.31C226.046 10.09 226.121 9.9 226.271 9.74C226.431 9.58 226.621 9.5 226.841 9.5C227.101 9.5 227.321 9.605 227.501 9.815C227.691 10.015 227.786 10.29 227.786 10.64ZM234.151 2.72C233.951 2.72 233.776 2.65 233.626 2.51C233.476 2.36 233.401 2.18 233.401 1.97C233.401 1.76 233.476 1.58 233.626 1.43C233.776 1.28 233.951 1.205 234.151 1.205C234.361 1.205 234.541 1.28 234.691 1.43C234.841 1.58 234.916 1.76 234.916 1.97C234.916 2.18 234.841 2.36 234.691 2.51C234.541 2.65 234.361 2.72 234.151 2.72ZM234.721 11H233.596V3.755H234.721V11ZM239.26 11.18C238.03 11.18 237.055 10.8 236.335 10.04L236.92 9.23C237.17 9.52 237.51 9.765 237.94 9.965C238.38 10.165 238.835 10.265 239.305 10.265C239.845 10.265 240.265 10.15 240.565 9.92C240.865 9.69 241.015 9.39 241.015 9.02C241.015 8.7 240.86 8.45 240.55 8.27C240.24 8.08 239.865 7.94 239.425 7.85C238.995 7.75 238.56 7.64 238.12 7.52C237.68 7.39 237.305 7.175 236.995 6.875C236.685 6.565 236.53 6.16 236.53 5.66C236.53 5.07 236.77 4.575 237.25 4.175C237.74 3.775 238.4 3.575 239.23 3.575C240.32 3.575 241.215 3.925 241.915 4.625L241.39 5.405C240.88 4.795 240.16 4.49 239.23 4.49C238.74 4.49 238.35 4.6 238.06 4.82C237.77 5.03 237.625 5.3 237.625 5.63C237.625 5.92 237.78 6.15 238.09 6.32C238.4 6.48 238.77 6.61 239.2 6.71C239.64 6.8 240.08 6.91 240.52 7.04C240.96 7.17 241.335 7.4 241.645 7.73C241.955 8.05 242.11 8.47 242.11 8.99C242.11 9.63 241.86 10.155 241.36 10.565C240.86 10.975 240.16 11.18 239.26 11.18ZM245.768 11.18C245.238 11.18 244.838 11.035 244.568 10.745C244.298 10.455 244.163 10.035 244.163 9.485V4.745H242.963V3.755H244.163V1.775H245.288V3.755H246.758V4.745H245.288V9.245C245.288 9.525 245.348 9.75 245.468 9.92C245.598 10.09 245.783 10.175 246.023 10.175C246.353 10.175 246.608 10.075 246.788 9.875L247.118 10.715C246.788 11.025 246.338 11.18 245.768 11.18ZM249.862 10.64C249.862 11.08 249.747 11.5 249.517 11.9C249.287 12.31 248.992 12.645 248.632 12.905L248.077 12.44C248.327 12.28 248.542 12.065 248.722 11.795C248.912 11.535 249.022 11.285 249.052 11.045C249.012 11.065 248.942 11.075 248.842 11.075C248.632 11.075 248.457 11.005 248.317 10.865C248.187 10.715 248.122 10.53 248.122 10.31C248.122 10.09 248.197 9.9 248.347 9.74C248.507 9.58 248.697 9.5 248.917 9.5C249.177 9.5 249.397 9.605 249.577 9.815C249.767 10.015 249.862 10.29 249.862 10.64ZM262.046 11H260.921V9.92C260.301 10.76 259.486 11.18 258.476 11.18C257.516 11.18 256.736 10.84 256.136 10.16C255.546 9.47 255.251 8.545 255.251 7.385C255.251 6.235 255.546 5.315 256.136 4.625C256.736 3.925 257.516 3.575 258.476 3.575C259.476 3.575 260.291 4 260.921 4.85V0.994999H262.046V11ZM258.746 10.175C259.186 10.175 259.606 10.065 260.006 9.845C260.406 9.625 260.711 9.355 260.921 9.035V5.75C260.711 5.42 260.401 5.145 259.991 4.925C259.591 4.695 259.176 4.58 258.746 4.58C258.036 4.58 257.471 4.845 257.051 5.375C256.631 5.895 256.421 6.565 256.421 7.385C256.421 8.205 256.631 8.875 257.051 9.395C257.471 9.915 258.036 10.175 258.746 10.175ZM269.954 11H268.829V10.175C268.219 10.845 267.419 11.18 266.429 11.18C265.759 11.18 265.169 10.965 264.659 10.535C264.149 10.105 263.894 9.52 263.894 8.78C263.894 8.02 264.144 7.435 264.644 7.025C265.154 6.605 265.749 6.395 266.429 6.395C267.459 6.395 268.259 6.725 268.829 7.385V6.08C268.829 5.6 268.659 5.225 268.319 4.955C267.979 4.685 267.539 4.55 266.999 4.55C266.149 4.55 265.409 4.885 264.779 5.555L264.254 4.775C265.024 3.975 265.989 3.575 267.149 3.575C267.979 3.575 268.654 3.775 269.174 4.175C269.694 4.575 269.954 5.19 269.954 6.02V11ZM266.834 10.37C267.734 10.37 268.399 10.07 268.829 9.47V8.105C268.399 7.505 267.734 7.205 266.834 7.205C266.314 7.205 265.884 7.355 265.544 7.655C265.214 7.945 265.049 8.325 265.049 8.795C265.049 9.255 265.214 9.635 265.544 9.935C265.884 10.225 266.314 10.37 266.834 10.37ZM274.504 11.18C273.274 11.18 272.299 10.8 271.579 10.04L272.164 9.23C272.414 9.52 272.754 9.765 273.184 9.965C273.624 10.165 274.079 10.265 274.549 10.265C275.089 10.265 275.509 10.15 275.809 9.92C276.109 9.69 276.259 9.39 276.259 9.02C276.259 8.7 276.104 8.45 275.794 8.27C275.484 8.08 275.109 7.94 274.669 7.85C274.239 7.75 273.804 7.64 273.364 7.52C272.924 7.39 272.549 7.175 272.239 6.875C271.929 6.565 271.774 6.16 271.774 5.66C271.774 5.07 272.014 4.575 272.494 4.175C272.984 3.775 273.644 3.575 274.474 3.575C275.564 3.575 276.459 3.925 277.159 4.625L276.634 5.405C276.124 4.795 275.404 4.49 274.474 4.49C273.984 4.49 273.594 4.6 273.304 4.82C273.014 5.03 272.869 5.3 272.869 5.63C272.869 5.92 273.024 6.15 273.334 6.32C273.644 6.48 274.014 6.61 274.444 6.71C274.884 6.8 275.324 6.91 275.764 7.04C276.204 7.17 276.579 7.4 276.889 7.73C277.199 8.05 277.354 8.47 277.354 8.99C277.354 9.63 277.104 10.155 276.604 10.565C276.104 10.975 275.404 11.18 274.504 11.18ZM281.477 11.18C280.247 11.18 279.272 10.8 278.552 10.04L279.137 9.23C279.387 9.52 279.727 9.765 280.157 9.965C280.597 10.165 281.052 10.265 281.522 10.265C282.062 10.265 282.482 10.15 282.782 9.92C283.082 9.69 283.232 9.39 283.232 9.02C283.232 8.7 283.077 8.45 282.767 8.27C282.457 8.08 282.082 7.94 281.642 7.85C281.212 7.75 280.777 7.64 280.337 7.52C279.897 7.39 279.522 7.175 279.212 6.875C278.902 6.565 278.747 6.16 278.747 5.66C278.747 5.07 278.987 4.575 279.467 4.175C279.957 3.775 280.617 3.575 281.447 3.575C282.537 3.575 283.432 3.925 284.132 4.625L283.607 5.405C283.097 4.795 282.377 4.49 281.447 4.49C280.957 4.49 280.567 4.6 280.277 4.82C279.987 5.03 279.842 5.3 279.842 5.63C279.842 5.92 279.997 6.15 280.307 6.32C280.617 6.48 280.987 6.61 281.417 6.71C281.857 6.8 282.297 6.91 282.737 7.04C283.177 7.17 283.552 7.4 283.862 7.73C284.172 8.05 284.327 8.47 284.327 8.99C284.327 9.63 284.077 10.155 283.577 10.565C283.077 10.975 282.377 11.18 281.477 11.18ZM293.291 11.18C292.211 11.18 291.326 10.83 290.636 10.13C289.946 9.42 289.601 8.5 289.601 7.37C289.601 6.31 289.941 5.415 290.621 4.685C291.301 3.945 292.151 3.575 293.171 3.575C294.241 3.575 295.086 3.945 295.706 4.685C296.336 5.415 296.651 6.34 296.651 7.46V7.745H290.786C290.836 8.455 291.096 9.05 291.566 9.53C292.036 10.01 292.646 10.25 293.396 10.25C294.296 10.25 295.041 9.945 295.631 9.335L296.171 10.07C295.431 10.81 294.471 11.18 293.291 11.18ZM295.541 6.92C295.531 6.3 295.321 5.745 294.911 5.255C294.501 4.755 293.916 4.505 293.156 4.505C292.436 4.505 291.866 4.75 291.446 5.24C291.036 5.73 290.816 6.29 290.786 6.92H295.541ZM300.769 11.18C299.539 11.18 298.564 10.8 297.844 10.04L298.429 9.23C298.679 9.52 299.019 9.765 299.449 9.965C299.889 10.165 300.344 10.265 300.814 10.265C301.354 10.265 301.774 10.15 302.074 9.92C302.374 9.69 302.524 9.39 302.524 9.02C302.524 8.7 302.369 8.45 302.059 8.27C301.749 8.08 301.374 7.94 300.934 7.85C300.504 7.75 300.069 7.64 299.629 7.52C299.189 7.39 298.814 7.175 298.504 6.875C298.194 6.565 298.039 6.16 298.039 5.66C298.039 5.07 298.279 4.575 298.759 4.175C299.249 3.775 299.909 3.575 300.739 3.575C301.829 3.575 302.724 3.925 303.424 4.625L302.899 5.405C302.389 4.795 301.669 4.49 300.739 4.49C300.249 4.49 299.859 4.6 299.569 4.82C299.279 5.03 299.134 5.3 299.134 5.63C299.134 5.92 299.289 6.15 299.599 6.32C299.909 6.48 300.279 6.61 300.709 6.71C301.149 6.8 301.589 6.91 302.029 7.04C302.469 7.17 302.844 7.4 303.154 7.73C303.464 8.05 303.619 8.47 303.619 8.99C303.619 9.63 303.369 10.155 302.869 10.565C302.369 10.975 301.669 11.18 300.769 11.18ZM10.995 40H9.87V35.08C9.87 34.08 9.425 33.58 8.535 33.58C8.175 33.58 7.815 33.69 7.455 33.91C7.095 34.13 6.815 34.39 6.615 34.69V40H5.49V35.08C5.49 34.08 5.045 33.58 4.155 33.58C3.805 33.58 3.45 33.69 3.09 33.91C2.74 34.13 2.46 34.395 2.25 34.705V40H1.125V32.755H2.25V33.805C2.43 33.525 2.745 33.25 3.195 32.98C3.645 32.71 4.11 32.575 4.59 32.575C5.12 32.575 5.55 32.7 5.88 32.95C6.21 33.2 6.43 33.525 6.54 33.925C6.76 33.565 7.095 33.25 7.545 32.98C7.995 32.71 8.47 32.575 8.97 32.575C10.32 32.575 10.995 33.305 10.995 34.765V40ZM16.5093 40.18C15.4293 40.18 14.5443 39.83 13.8543 39.13C13.1643 38.42 12.8193 37.5 12.8193 36.37C12.8193 35.31 13.1593 34.415 13.8393 33.685C14.5193 32.945 15.3693 32.575 16.3893 32.575C17.4593 32.575 18.3043 32.945 18.9243 33.685C19.5543 34.415 19.8693 35.34 19.8693 36.46V36.745H14.0043C14.0543 37.455 14.3143 38.05 14.7843 38.53C15.2543 39.01 15.8643 39.25 16.6143 39.25C17.5143 39.25 18.2593 38.945 18.8493 38.335L19.3893 39.07C18.6493 39.81 17.6893 40.18 16.5093 40.18ZM18.7593 35.92C18.7493 35.3 18.5393 34.745 18.1293 34.255C17.7193 33.755 17.1343 33.505 16.3743 33.505C15.6543 33.505 15.0843 33.75 14.6643 34.24C14.2543 34.73 14.0343 35.29 14.0043 35.92H18.7593ZM27.7214 40H26.5964V35.23C26.5964 34.63 26.4564 34.205 26.1764 33.955C25.8964 33.705 25.4914 33.58 24.9614 33.58C24.5514 33.58 24.1464 33.69 23.7464 33.91C23.3564 34.13 23.0464 34.395 22.8164 34.705V40H21.6914V29.995H22.8164V33.805C23.0964 33.475 23.4714 33.19 23.9414 32.95C24.4114 32.7 24.9014 32.575 25.4114 32.575C26.9514 32.575 27.7214 33.345 27.7214 34.885V40ZM31.0928 40H29.9678V32.755H31.0928V33.925C31.7628 33.045 32.5678 32.605 33.5078 32.605V33.76C33.3678 33.73 33.2178 33.715 33.0578 33.715C32.7178 33.715 32.3478 33.835 31.9478 34.075C31.5478 34.315 31.2628 34.58 31.0928 34.87V40ZM44.5461 39.085C43.8961 39.815 43.0311 40.18 41.9511 40.18C40.8711 40.18 40.0011 39.815 39.3411 39.085C38.6911 38.355 38.3661 37.45 38.3661 36.37C38.3661 35.29 38.6911 34.39 39.3411 33.67C40.0011 32.94 40.8711 32.575 41.9511 32.575C43.0311 32.575 43.8961 32.94 44.5461 33.67C45.2061 34.39 45.5361 35.29 45.5361 36.37C45.5361 37.45 45.2061 38.355 44.5461 39.085ZM40.1811 38.365C40.6211 38.905 41.2111 39.175 41.9511 39.175C42.6911 39.175 43.2761 38.905 43.7061 38.365C44.1361 37.815 44.3511 37.15 44.3511 36.37C44.3511 35.59 44.1361 34.93 43.7061 34.39C43.2761 33.85 42.6911 33.58 41.9511 33.58C41.2111 33.58 40.6211 33.855 40.1811 34.405C39.7511 34.945 39.5361 35.6 39.5361 36.37C39.5361 37.15 39.7511 37.815 40.1811 38.365ZM53.7451 40H52.6201V38.92C52.0001 39.76 51.1851 40.18 50.1751 40.18C49.2151 40.18 48.4351 39.84 47.8351 39.16C47.2451 38.47 46.9501 37.545 46.9501 36.385C46.9501 35.235 47.2451 34.315 47.8351 33.625C48.4351 32.925 49.2151 32.575 50.1751 32.575C51.1751 32.575 51.9901 33 52.6201 33.85V29.995H53.7451V40ZM50.4451 39.175C50.8851 39.175 51.3051 39.065 51.7051 38.845C52.1051 38.625 52.4101 38.355 52.6201 38.035V34.75C52.4101 34.42 52.1001 34.145 51.6901 33.925C51.2901 33.695 50.8751 33.58 50.4451 33.58C49.7351 33.58 49.1701 33.845 48.7501 34.375C48.3301 34.895 48.1201 35.565 48.1201 36.385C48.1201 37.205 48.3301 37.875 48.7501 38.395C49.1701 38.915 49.7351 39.175 50.4451 39.175ZM59.268 40.18C58.188 40.18 57.303 39.83 56.613 39.13C55.923 38.42 55.578 37.5 55.578 36.37C55.578 35.31 55.918 34.415 56.598 33.685C57.278 32.945 58.128 32.575 59.148 32.575C60.218 32.575 61.063 32.945 61.683 33.685C62.313 34.415 62.628 35.34 62.628 36.46V36.745H56.763C56.813 37.455 57.073 38.05 57.543 38.53C58.013 39.01 58.623 39.25 59.373 39.25C60.273 39.25 61.018 38.945 61.608 38.335L62.148 39.07C61.408 39.81 60.448 40.18 59.268 40.18ZM61.518 35.92C61.508 35.3 61.298 34.745 60.888 34.255C60.478 33.755 59.893 33.505 59.133 33.505C58.413 33.505 57.843 33.75 57.423 34.24C57.013 34.73 56.793 35.29 56.763 35.92H61.518ZM65.5752 40H64.4502V32.755H65.5752V33.925C66.2452 33.045 67.0502 32.605 67.9902 32.605V33.76C67.8502 33.73 67.7002 33.715 67.5402 33.715C67.2002 33.715 66.8302 33.835 66.4302 34.075C66.0302 34.315 65.7452 34.58 65.5752 34.87V40ZM80.6636 40H79.5386L77.6486 34.18L75.7586 40H74.6336L72.3236 32.755H73.4936L75.2636 38.53L77.1686 32.755H78.1286L80.0336 38.53L81.8036 32.755H82.9736L80.6636 40ZM87.5542 40.18C86.4742 40.18 85.5892 39.83 84.8992 39.13C84.2092 38.42 83.8642 37.5 83.8642 36.37C83.8642 35.31 84.2042 34.415 84.8842 33.685C85.5642 32.945 86.4142 32.575 87.4342 32.575C88.5042 32.575 89.3492 32.945 89.9692 33.685C90.5992 34.415 90.9142 35.34 90.9142 36.46V36.745H85.0492C85.0992 37.455 85.3592 38.05 85.8292 38.53C86.2992 39.01 86.9092 39.25 87.6592 39.25C88.5592 39.25 89.3042 38.945 89.8942 38.335L90.4342 39.07C89.6942 39.81 88.7342 40.18 87.5542 40.18ZM89.8042 35.92C89.7942 35.3 89.5842 34.745 89.1742 34.255C88.7642 33.755 88.1792 33.505 87.4192 33.505C86.6992 33.505 86.1292 33.75 85.7092 34.24C85.2992 34.73 85.0792 35.29 85.0492 35.92H89.8042ZM98.7513 40H97.6263V35.26C97.6263 34.65 97.4863 34.22 97.2063 33.97C96.9263 33.71 96.5263 33.58 96.0063 33.58C95.5863 33.58 95.1763 33.69 94.7763 33.91C94.3863 34.13 94.0813 34.395 93.8613 34.705V40H92.7363V32.755H93.8613V33.805C94.1413 33.475 94.5163 33.19 94.9863 32.95C95.4563 32.7 95.9413 32.575 96.4413 32.575C97.9813 32.575 98.7513 33.355 98.7513 34.915V40ZM101.553 31.72C101.353 31.72 101.178 31.65 101.028 31.51C100.878 31.36 100.803 31.18 100.803 30.97C100.803 30.76 100.878 30.58 101.028 30.43C101.178 30.28 101.353 30.205 101.553 30.205C101.763 30.205 101.943 30.28 102.093 30.43C102.243 30.58 102.318 30.76 102.318 30.97C102.318 31.18 102.243 31.36 102.093 31.51C101.943 31.65 101.763 31.72 101.553 31.72ZM102.123 40H100.998V32.755H102.123V40ZM107.277 42.94C106.637 42.94 106.092 42.86 105.642 42.7C105.192 42.55 104.762 42.27 104.352 41.86L104.922 41.02C105.472 41.68 106.257 42.01 107.277 42.01C107.947 42.01 108.502 41.83 108.942 41.47C109.382 41.12 109.602 40.575 109.602 39.835V38.8C109.332 39.18 108.982 39.49 108.552 39.73C108.122 39.97 107.662 40.09 107.172 40.09C106.212 40.09 105.432 39.755 104.832 39.085C104.242 38.405 103.947 37.49 103.947 36.34C103.947 35.19 104.242 34.275 104.832 33.595C105.432 32.915 106.212 32.575 107.172 32.575C108.162 32.575 108.972 33 109.602 33.85V32.755H110.727V39.79C110.727 40.9 110.402 41.7 109.752 42.19C109.102 42.69 108.277 42.94 107.277 42.94ZM107.442 39.1C107.872 39.1 108.287 38.985 108.687 38.755C109.097 38.525 109.402 38.245 109.602 37.915V34.75C109.402 34.42 109.102 34.145 108.702 33.925C108.302 33.695 107.882 33.58 107.442 33.58C106.722 33.58 106.152 33.835 105.732 34.345C105.322 34.855 105.117 35.52 105.117 36.34C105.117 37.15 105.327 37.815 105.747 38.335C106.167 38.845 106.732 39.1 107.442 39.1ZM116.25 40.18C115.17 40.18 114.285 39.83 113.595 39.13C112.905 38.42 112.56 37.5 112.56 36.37C112.56 35.31 112.9 34.415 113.58 33.685C114.26 32.945 115.11 32.575 116.13 32.575C117.2 32.575 118.045 32.945 118.665 33.685C119.295 34.415 119.61 35.34 119.61 36.46V36.745H113.745C113.795 37.455 114.055 38.05 114.525 38.53C114.995 39.01 115.605 39.25 116.355 39.25C117.255 39.25 118 38.945 118.59 38.335L119.13 39.07C118.39 39.81 117.43 40.18 116.25 40.18ZM118.5 35.92C118.49 35.3 118.28 34.745 117.87 34.255C117.46 33.755 116.875 33.505 116.115 33.505C115.395 33.505 114.825 33.75 114.405 34.24C113.995 34.73 113.775 35.29 113.745 35.92H118.5ZM122.558 40H121.433V32.755H122.558V33.925C123.228 33.045 124.033 32.605 124.973 32.605V33.76C124.833 33.73 124.683 33.715 124.523 33.715C124.183 33.715 123.813 33.835 123.413 34.075C123.013 34.315 122.728 34.58 122.558 34.87V40ZM136.626 40H135.501V38.92C134.881 39.76 134.066 40.18 133.056 40.18C132.096 40.18 131.316 39.84 130.716 39.16C130.126 38.47 129.831 37.545 129.831 36.385C129.831 35.235 130.126 34.315 130.716 33.625C131.316 32.925 132.096 32.575 133.056 32.575C134.056 32.575 134.871 33 135.501 33.85V29.995H136.626V40ZM133.326 39.175C133.766 39.175 134.186 39.065 134.586 38.845C134.986 38.625 135.291 38.355 135.501 38.035V34.75C135.291 34.42 134.981 34.145 134.571 33.925C134.171 33.695 133.756 33.58 133.326 33.58C132.616 33.58 132.051 33.845 131.631 34.375C131.211 34.895 131.001 35.565 131.001 36.385C131.001 37.205 131.211 37.875 131.631 38.395C132.051 38.915 132.616 39.175 133.326 39.175ZM139.434 31.72C139.234 31.72 139.059 31.65 138.909 31.51C138.759 31.36 138.684 31.18 138.684 30.97C138.684 30.76 138.759 30.58 138.909 30.43C139.059 30.28 139.234 30.205 139.434 30.205C139.644 30.205 139.824 30.28 139.974 30.43C140.124 30.58 140.199 30.76 140.199 30.97C140.199 31.18 140.124 31.36 139.974 31.51C139.824 31.65 139.644 31.72 139.434 31.72ZM140.004 40H138.879V32.755H140.004V40ZM145.518 40.18C144.438 40.18 143.553 39.83 142.863 39.13C142.173 38.42 141.828 37.5 141.828 36.37C141.828 35.31 142.168 34.415 142.848 33.685C143.528 32.945 144.378 32.575 145.398 32.575C146.468 32.575 147.313 32.945 147.933 33.685C148.563 34.415 148.878 35.34 148.878 36.46V36.745H143.013C143.063 37.455 143.323 38.05 143.793 38.53C144.263 39.01 144.873 39.25 145.623 39.25C146.523 39.25 147.268 38.945 147.858 38.335L148.398 39.07C147.658 39.81 146.698 40.18 145.518 40.18ZM147.768 35.92C147.758 35.3 147.548 34.745 147.138 34.255C146.728 33.755 146.143 33.505 145.383 33.505C144.663 33.505 144.093 33.75 143.673 34.24C143.263 34.73 143.043 35.29 143.013 35.92H147.768ZM160.582 40H159.457V35.26C159.457 34.65 159.317 34.22 159.037 33.97C158.757 33.71 158.357 33.58 157.837 33.58C157.417 33.58 157.007 33.69 156.607 33.91C156.217 34.13 155.912 34.395 155.692 34.705V40H154.567V32.755H155.692V33.805C155.972 33.475 156.347 33.19 156.817 32.95C157.287 32.7 157.772 32.575 158.272 32.575C159.812 32.575 160.582 33.355 160.582 34.915V40ZM168.589 39.085C167.939 39.815 167.074 40.18 165.994 40.18C164.914 40.18 164.044 39.815 163.384 39.085C162.734 38.355 162.409 37.45 162.409 36.37C162.409 35.29 162.734 34.39 163.384 33.67C164.044 32.94 164.914 32.575 165.994 32.575C167.074 32.575 167.939 32.94 168.589 33.67C169.249 34.39 169.579 35.29 169.579 36.37C169.579 37.45 169.249 38.355 168.589 39.085ZM164.224 38.365C164.664 38.905 165.254 39.175 165.994 39.175C166.734 39.175 167.319 38.905 167.749 38.365C168.179 37.815 168.394 37.15 168.394 36.37C168.394 35.59 168.179 34.93 167.749 34.39C167.319 33.85 166.734 33.58 165.994 33.58C165.254 33.58 164.664 33.855 164.224 34.405C163.794 34.945 163.579 35.6 163.579 36.37C163.579 37.15 163.794 37.815 164.224 38.365ZM172.538 40H171.413V32.755H172.538V33.925C173.208 33.045 174.013 32.605 174.953 32.605V33.76C174.813 33.73 174.663 33.715 174.503 33.715C174.163 33.715 173.793 33.835 173.393 34.075C172.993 34.315 172.708 34.58 172.538 34.87V40ZM186.234 40H185.109V35.08C185.109 34.08 184.664 33.58 183.774 33.58C183.414 33.58 183.054 33.69 182.694 33.91C182.334 34.13 182.054 34.39 181.854 34.69V40H180.729V35.08C180.729 34.08 180.284 33.58 179.394 33.58C179.044 33.58 178.689 33.69 178.329 33.91C177.979 34.13 177.699 34.395 177.489 34.705V40H176.364V32.755H177.489V33.805C177.669 33.525 177.984 33.25 178.434 32.98C178.884 32.71 179.349 32.575 179.829 32.575C180.359 32.575 180.789 32.7 181.119 32.95C181.449 33.2 181.669 33.525 181.779 33.925C181.999 33.565 182.334 33.25 182.784 32.98C183.234 32.71 183.709 32.575 184.209 32.575C185.559 32.575 186.234 33.305 186.234 34.765V40ZM194.134 40H193.009V39.175C192.399 39.845 191.599 40.18 190.609 40.18C189.939 40.18 189.349 39.965 188.839 39.535C188.329 39.105 188.074 38.52 188.074 37.78C188.074 37.02 188.324 36.435 188.824 36.025C189.334 35.605 189.929 35.395 190.609 35.395C191.639 35.395 192.439 35.725 193.009 36.385V35.08C193.009 34.6 192.839 34.225 192.499 33.955C192.159 33.685 191.719 33.55 191.179 33.55C190.329 33.55 189.589 33.885 188.959 34.555L188.434 33.775C189.204 32.975 190.169 32.575 191.329 32.575C192.159 32.575 192.834 32.775 193.354 33.175C193.874 33.575 194.134 34.19 194.134 35.02V40ZM191.014 39.37C191.914 39.37 192.579 39.07 193.009 38.47V37.105C192.579 36.505 191.914 36.205 191.014 36.205C190.494 36.205 190.064 36.355 189.724 36.655C189.394 36.945 189.229 37.325 189.229 37.795C189.229 38.255 189.394 38.635 189.724 38.935C190.064 39.225 190.494 39.37 191.014 39.37ZM197.514 40H196.389V29.995H197.514V40ZM203.028 40.18C201.948 40.18 201.063 39.83 200.373 39.13C199.683 38.42 199.338 37.5 199.338 36.37C199.338 35.31 199.678 34.415 200.358 33.685C201.038 32.945 201.888 32.575 202.908 32.575C203.978 32.575 204.823 32.945 205.443 33.685C206.073 34.415 206.388 35.34 206.388 36.46V36.745H200.523C200.573 37.455 200.833 38.05 201.303 38.53C201.773 39.01 202.383 39.25 203.133 39.25C204.033 39.25 204.778 38.945 205.368 38.335L205.908 39.07C205.168 39.81 204.208 40.18 203.028 40.18ZM205.278 35.92C205.268 35.3 205.058 34.745 204.648 34.255C204.238 33.755 203.653 33.505 202.893 33.505C202.173 33.505 201.603 33.75 201.183 34.24C200.773 34.73 200.553 35.29 200.523 35.92H205.278ZM220.687 40H219.262L218.377 37.78H213.397L212.512 40H211.087L215.107 29.995H216.652L220.687 40ZM218.002 36.67L215.887 31.285L213.757 36.67H218.002ZM227.965 40H226.84V35.26C226.84 34.65 226.7 34.22 226.42 33.97C226.14 33.71 225.74 33.58 225.22 33.58C224.8 33.58 224.39 33.69 223.99 33.91C223.6 34.13 223.295 34.395 223.075 34.705V40H221.95V32.755H223.075V33.805C223.355 33.475 223.73 33.19 224.2 32.95C224.67 32.7 225.155 32.575 225.655 32.575C227.195 32.575 227.965 33.355 227.965 34.915V40ZM235.972 39.085C235.322 39.815 234.457 40.18 233.377 40.18C232.297 40.18 231.427 39.815 230.767 39.085C230.117 38.355 229.792 37.45 229.792 36.37C229.792 35.29 230.117 34.39 230.767 33.67C231.427 32.94 232.297 32.575 233.377 32.575C234.457 32.575 235.322 32.94 235.972 33.67C236.632 34.39 236.962 35.29 236.962 36.37C236.962 37.45 236.632 38.355 235.972 39.085ZM231.607 38.365C232.047 38.905 232.637 39.175 233.377 39.175C234.117 39.175 234.702 38.905 235.132 38.365C235.562 37.815 235.777 37.15 235.777 36.37C235.777 35.59 235.562 34.93 235.132 34.39C234.702 33.85 234.117 33.58 233.377 33.58C232.637 33.58 232.047 33.855 231.607 34.405C231.177 34.945 230.962 35.6 230.962 36.37C230.962 37.15 231.177 37.815 231.607 38.365ZM239.921 40H238.796V32.755H239.921V33.925C240.591 33.045 241.396 32.605 242.336 32.605V33.76C242.196 33.73 242.046 33.715 241.886 33.715C241.546 33.715 241.176 33.835 240.776 34.075C240.376 34.315 240.091 34.58 239.921 34.87V40ZM250.122 40H248.997V38.92C248.377 39.76 247.562 40.18 246.552 40.18C245.592 40.18 244.812 39.84 244.212 39.16C243.622 38.47 243.327 37.545 243.327 36.385C243.327 35.235 243.622 34.315 244.212 33.625C244.812 32.925 245.592 32.575 246.552 32.575C247.552 32.575 248.367 33 248.997 33.85V29.995H250.122V40ZM246.822 39.175C247.262 39.175 247.682 39.065 248.082 38.845C248.482 38.625 248.787 38.355 248.997 38.035V34.75C248.787 34.42 248.477 34.145 248.067 33.925C247.667 33.695 247.252 33.58 246.822 33.58C246.112 33.58 245.547 33.845 245.127 34.375C244.707 34.895 244.497 35.565 244.497 36.385C244.497 37.205 244.707 37.875 245.127 38.395C245.547 38.915 246.112 39.175 246.822 39.175ZM258.39 40H257.265V35.26C257.265 34.65 257.125 34.22 256.845 33.97C256.565 33.71 256.165 33.58 255.645 33.58C255.225 33.58 254.815 33.69 254.415 33.91C254.025 34.13 253.72 34.395 253.5 34.705V40H252.375V32.755H253.5V33.805C253.78 33.475 254.155 33.19 254.625 32.95C255.095 32.7 255.58 32.575 256.08 32.575C257.62 32.575 258.39 33.355 258.39 34.915V40ZM266.652 40H265.527V38.98C265.227 39.32 264.847 39.605 264.387 39.835C263.937 40.065 263.457 40.18 262.947 40.18C261.407 40.18 260.637 39.41 260.637 37.87V32.755H261.762V37.525C261.762 38.125 261.897 38.55 262.167 38.8C262.447 39.05 262.852 39.175 263.382 39.175C263.802 39.175 264.207 39.07 264.597 38.86C264.997 38.65 265.307 38.39 265.527 38.08V32.755H266.652V40ZM274.913 40H273.788V35.26C273.788 34.65 273.648 34.22 273.368 33.97C273.088 33.71 272.688 33.58 272.168 33.58C271.748 33.58 271.338 33.69 270.938 33.91C270.548 34.13 270.243 34.395 270.023 34.705V40H268.898V32.755H270.023V33.805C270.303 33.475 270.678 33.19 271.148 32.95C271.618 32.7 272.103 32.575 272.603 32.575C274.143 32.575 274.913 33.355 274.913 34.915V40ZM280.07 42.94C279.43 42.94 278.885 42.86 278.435 42.7C277.985 42.55 277.555 42.27 277.145 41.86L277.715 41.02C278.265 41.68 279.05 42.01 280.07 42.01C280.74 42.01 281.295 41.83 281.735 41.47C282.175 41.12 282.395 40.575 282.395 39.835V38.8C282.125 39.18 281.775 39.49 281.345 39.73C280.915 39.97 280.455 40.09 279.965 40.09C279.005 40.09 278.225 39.755 277.625 39.085C277.035 38.405 276.74 37.49 276.74 36.34C276.74 35.19 277.035 34.275 277.625 33.595C278.225 32.915 279.005 32.575 279.965 32.575C280.955 32.575 281.765 33 282.395 33.85V32.755H283.52V39.79C283.52 40.9 283.195 41.7 282.545 42.19C281.895 42.69 281.07 42.94 280.07 42.94ZM280.235 39.1C280.665 39.1 281.08 38.985 281.48 38.755C281.89 38.525 282.195 38.245 282.395 37.915V34.75C282.195 34.42 281.895 34.145 281.495 33.925C281.095 33.695 280.675 33.58 280.235 33.58C279.515 33.58 278.945 33.835 278.525 34.345C278.115 34.855 277.91 35.52 277.91 36.34C277.91 37.15 278.12 37.815 278.54 38.335C278.96 38.845 279.525 39.1 280.235 39.1ZM4.29 69H3.06L0.045 61.755H1.26L3.675 67.695L6.075 61.755H7.305L4.29 69ZM14.2385 68.085C13.5885 68.815 12.7235 69.18 11.6435 69.18C10.5635 69.18 9.69352 68.815 9.03352 68.085C8.38352 67.355 8.05852 66.45 8.05852 65.37C8.05852 64.29 8.38352 63.39 9.03352 62.67C9.69352 61.94 10.5635 61.575 11.6435 61.575C12.7235 61.575 13.5885 61.94 14.2385 62.67C14.8985 63.39 15.2285 64.29 15.2285 65.37C15.2285 66.45 14.8985 67.355 14.2385 68.085ZM9.87352 67.365C10.3135 67.905 10.9035 68.175 11.6435 68.175C12.3835 68.175 12.9685 67.905 13.3985 67.365C13.8285 66.815 14.0435 66.15 14.0435 65.37C14.0435 64.59 13.8285 63.93 13.3985 63.39C12.9685 62.85 12.3835 62.58 11.6435 62.58C10.9035 62.58 10.3135 62.855 9.87352 63.405C9.44352 63.945 9.22852 64.6 9.22852 65.37C9.22852 66.15 9.44352 66.815 9.87352 67.365ZM23.0775 69H21.9525V64.26C21.9525 63.65 21.8125 63.22 21.5325 62.97C21.2525 62.71 20.8525 62.58 20.3325 62.58C19.9125 62.58 19.5025 62.69 19.1025 62.91C18.7125 63.13 18.4075 63.395 18.1875 63.705V69H17.0625V61.755H18.1875V62.805C18.4675 62.475 18.8425 62.19 19.3125 61.95C19.7825 61.7 20.2675 61.575 20.7675 61.575C22.3075 61.575 23.0775 62.355 23.0775 63.915V69ZM33.7964 69H29.2364V58.995H33.6914C34.5514 58.995 35.2314 59.23 35.7314 59.7C36.2414 60.17 36.4964 60.785 36.4964 61.545C36.4964 62.145 36.3264 62.655 35.9864 63.075C35.6464 63.485 35.2314 63.74 34.7414 63.84C35.2714 63.92 35.7264 64.2 36.1064 64.68C36.4964 65.16 36.6914 65.7 36.6914 66.3C36.6914 67.11 36.4314 67.765 35.9114 68.265C35.4014 68.755 34.6964 69 33.7964 69ZM33.4814 63.33C34.0314 63.33 34.4564 63.18 34.7564 62.88C35.0564 62.58 35.2064 62.195 35.2064 61.725C35.2064 61.255 35.0514 60.87 34.7414 60.57C34.4414 60.26 34.0214 60.105 33.4814 60.105H30.4814V63.33H33.4814ZM33.5414 67.89C34.1214 67.89 34.5764 67.735 34.9064 67.425C35.2364 67.115 35.4014 66.695 35.4014 66.165C35.4014 65.675 35.2364 65.265 34.9064 64.935C34.5864 64.605 34.1314 64.44 33.5414 64.44H30.4814V67.89H33.5414ZM44.64 69H43.515V67.98C43.215 68.32 42.835 68.605 42.375 68.835C41.925 69.065 41.445 69.18 40.935 69.18C39.395 69.18 38.625 68.41 38.625 66.87V61.755H39.75V66.525C39.75 67.125 39.885 67.55 40.155 67.8C40.435 68.05 40.84 68.175 41.37 68.175C41.79 68.175 42.195 68.07 42.585 67.86C42.985 67.65 43.295 67.39 43.515 67.08V61.755H44.64V69ZM50.0817 69.18C49.0117 69.18 48.1417 68.82 47.4717 68.1C46.8017 67.37 46.4667 66.46 46.4667 65.37C46.4667 64.28 46.8017 63.375 47.4717 62.655C48.1417 61.935 49.0117 61.575 50.0817 61.575C51.2017 61.575 52.0867 61.995 52.7367 62.835L51.9867 63.525C51.5267 62.895 50.9117 62.58 50.1417 62.58C49.3817 62.58 48.7717 62.84 48.3117 63.36C47.8617 63.88 47.6367 64.55 47.6367 65.37C47.6367 66.19 47.8617 66.865 48.3117 67.395C48.7717 67.915 49.3817 68.175 50.1417 68.175C50.9017 68.175 51.5167 67.86 51.9867 67.23L52.7367 67.92C52.0867 68.76 51.2017 69.18 50.0817 69.18ZM60.3435 69H59.2185V64.23C59.2185 63.63 59.0785 63.205 58.7985 62.955C58.5185 62.705 58.1135 62.58 57.5835 62.58C57.1735 62.58 56.7685 62.69 56.3685 62.91C55.9785 63.13 55.6685 63.395 55.4385 63.705V69H54.3135V58.995H55.4385V62.805C55.7185 62.475 56.0935 62.19 56.5635 61.95C57.0335 61.7 57.5235 61.575 58.0335 61.575C59.5735 61.575 60.3435 62.345 60.3435 63.885V69ZM64.8848 69.18C63.6548 69.18 62.6798 68.8 61.9598 68.04L62.5448 67.23C62.7948 67.52 63.1348 67.765 63.5648 67.965C64.0048 68.165 64.4598 68.265 64.9298 68.265C65.4698 68.265 65.8898 68.15 66.1898 67.92C66.4898 67.69 66.6398 67.39 66.6398 67.02C66.6398 66.7 66.4848 66.45 66.1748 66.27C65.8648 66.08 65.4898 65.94 65.0498 65.85C64.6198 65.75 64.1848 65.64 63.7448 65.52C63.3048 65.39 62.9298 65.175 62.6198 64.875C62.3098 64.565 62.1548 64.16 62.1548 63.66C62.1548 63.07 62.3948 62.575 62.8748 62.175C63.3648 61.775 64.0248 61.575 64.8548 61.575C65.9448 61.575 66.8398 61.925 67.5398 62.625L67.0148 63.405C66.5048 62.795 65.7848 62.49 64.8548 62.49C64.3648 62.49 63.9748 62.6 63.6848 62.82C63.3948 63.03 63.2498 63.3 63.2498 63.63C63.2498 63.92 63.4048 64.15 63.7148 64.32C64.0248 64.48 64.3948 64.61 64.8248 64.71C65.2648 64.8 65.7048 64.91 66.1448 65.04C66.5848 65.17 66.9598 65.4 67.2698 65.73C67.5798 66.05 67.7348 66.47 67.7348 66.99C67.7348 67.63 67.4848 68.155 66.9848 68.565C66.4848 68.975 65.7848 69.18 64.8848 69.18ZM71.3925 69.18C70.8625 69.18 70.4625 69.035 70.1925 68.745C69.9225 68.455 69.7875 68.035 69.7875 67.485V62.745H68.5875V61.755H69.7875V59.775H70.9125V61.755H72.3825V62.745H70.9125V67.245C70.9125 67.525 70.9725 67.75 71.0925 67.92C71.2225 68.09 71.4075 68.175 71.6475 68.175C71.9775 68.175 72.2325 68.075 72.4125 67.875L72.7425 68.715C72.4125 69.025 71.9625 69.18 71.3925 69.18ZM79.6267 69H78.5017V68.175C77.8917 68.845 77.0917 69.18 76.1017 69.18C75.4317 69.18 74.8417 68.965 74.3317 68.535C73.8217 68.105 73.5667 67.52 73.5667 66.78C73.5667 66.02 73.8167 65.435 74.3167 65.025C74.8267 64.605 75.4217 64.395 76.1017 64.395C77.1317 64.395 77.9317 64.725 78.5017 65.385V64.08C78.5017 63.6 78.3317 63.225 77.9917 62.955C77.6517 62.685 77.2117 62.55 76.6717 62.55C75.8217 62.55 75.0817 62.885 74.4517 63.555L73.9267 62.775C74.6967 61.975 75.6617 61.575 76.8217 61.575C77.6517 61.575 78.3267 61.775 78.8467 62.175C79.3667 62.575 79.6267 63.19 79.6267 64.02V69ZM76.5067 68.37C77.4067 68.37 78.0717 68.07 78.5017 67.47V66.105C78.0717 65.505 77.4067 65.205 76.5067 65.205C75.9867 65.205 75.5567 65.355 75.2167 65.655C74.8867 65.945 74.7217 66.325 74.7217 66.795C74.7217 67.255 74.8867 67.635 75.2167 67.935C75.5567 68.225 75.9867 68.37 76.5067 68.37ZM83.0068 67.035C83.2068 67.355 83.5068 67.625 83.9068 67.845C84.3168 68.065 84.7368 68.175 85.1668 68.175C85.8868 68.175 86.4568 67.915 86.8768 67.395C87.2968 66.875 87.5068 66.205 87.5068 65.385C87.5068 64.565 87.2968 63.895 86.8768 63.375C86.4568 62.845 85.8868 62.58 85.1668 62.58C84.7368 62.58 84.3168 62.695 83.9068 62.925C83.5068 63.145 83.2068 63.42 83.0068 63.75V67.035ZM83.0068 69H81.8818V58.995H83.0068V62.85C83.6368 62 84.4518 61.575 85.4518 61.575C86.4018 61.575 87.1768 61.925 87.7768 62.625C88.3768 63.315 88.6768 64.235 88.6768 65.385C88.6768 66.545 88.3768 67.47 87.7768 68.16C87.1868 68.84 86.4118 69.18 85.4518 69.18C84.4418 69.18 83.6268 68.76 83.0068 67.92V69ZM93.7798 69.18C92.6998 69.18 91.8148 68.83 91.1248 68.13C90.4348 67.42 90.0898 66.5 90.0898 65.37C90.0898 64.31 90.4298 63.415 91.1098 62.685C91.7898 61.945 92.6398 61.575 93.6598 61.575C94.7298 61.575 95.5748 61.945 96.1948 62.685C96.8248 63.415 97.1398 64.34 97.1398 65.46V65.745H91.2748C91.3248 66.455 91.5848 67.05 92.0548 67.53C92.5248 68.01 93.1348 68.25 93.8848 68.25C94.7848 68.25 95.5298 67.945 96.1198 67.335L96.6598 68.07C95.9198 68.81 94.9598 69.18 93.7798 69.18ZM96.0298 64.92C96.0198 64.3 95.8098 63.745 95.3998 63.255C94.9898 62.755 94.4048 62.505 93.6448 62.505C92.9248 62.505 92.3548 62.75 91.9348 63.24C91.5248 63.73 91.3048 64.29 91.2748 64.92H96.0298ZM104.977 69H103.852V64.26C103.852 63.65 103.712 63.22 103.432 62.97C103.152 62.71 102.752 62.58 102.232 62.58C101.812 62.58 101.402 62.69 101.002 62.91C100.612 63.13 100.307 63.395 100.087 63.705V69H98.9619V61.755H100.087V62.805C100.367 62.475 100.742 62.19 101.212 61.95C101.682 61.7 102.167 61.575 102.667 61.575C104.207 61.575 104.977 62.355 104.977 63.915V69ZM117.466 69H116.341V67.92C115.721 68.76 114.906 69.18 113.896 69.18C112.936 69.18 112.156 68.84 111.556 68.16C110.966 67.47 110.671 66.545 110.671 65.385C110.671 64.235 110.966 63.315 111.556 62.625C112.156 61.925 112.936 61.575 113.896 61.575C114.896 61.575 115.711 62 116.341 62.85V58.995H117.466V69ZM114.166 68.175C114.606 68.175 115.026 68.065 115.426 67.845C115.826 67.625 116.131 67.355 116.341 67.035V63.75C116.131 63.42 115.821 63.145 115.411 62.925C115.011 62.695 114.596 62.58 114.166 62.58C113.456 62.58 112.891 62.845 112.471 63.375C112.051 63.895 111.841 64.565 111.841 65.385C111.841 66.205 112.051 66.875 112.471 67.395C112.891 67.915 113.456 68.175 114.166 68.175ZM125.374 69H124.249V68.175C123.639 68.845 122.839 69.18 121.849 69.18C121.179 69.18 120.589 68.965 120.079 68.535C119.569 68.105 119.314 67.52 119.314 66.78C119.314 66.02 119.564 65.435 120.064 65.025C120.574 64.605 121.169 64.395 121.849 64.395C122.879 64.395 123.679 64.725 124.249 65.385V64.08C124.249 63.6 124.079 63.225 123.739 62.955C123.399 62.685 122.959 62.55 122.419 62.55C121.569 62.55 120.829 62.885 120.199 63.555L119.674 62.775C120.444 61.975 121.409 61.575 122.569 61.575C123.399 61.575 124.074 61.775 124.594 62.175C125.114 62.575 125.374 63.19 125.374 64.02V69ZM122.254 68.37C123.154 68.37 123.819 68.07 124.249 67.47V66.105C123.819 65.505 123.154 65.205 122.254 65.205C121.734 65.205 121.304 65.355 120.964 65.655C120.634 65.945 120.469 66.325 120.469 66.795C120.469 67.255 120.634 67.635 120.964 67.935C121.304 68.225 121.734 68.37 122.254 68.37ZM128.754 69H127.629V61.755H128.754V62.925C129.424 62.045 130.229 61.605 131.169 61.605V62.76C131.029 62.73 130.879 62.715 130.719 62.715C130.379 62.715 130.009 62.835 129.609 63.075C129.209 63.315 128.924 63.58 128.754 63.87V69ZM134.875 69.18C133.645 69.18 132.67 68.8 131.95 68.04L132.535 67.23C132.785 67.52 133.125 67.765 133.555 67.965C133.995 68.165 134.45 68.265 134.92 68.265C135.46 68.265 135.88 68.15 136.18 67.92C136.48 67.69 136.63 67.39 136.63 67.02C136.63 66.7 136.475 66.45 136.165 66.27C135.855 66.08 135.48 65.94 135.04 65.85C134.61 65.75 134.175 65.64 133.735 65.52C133.295 65.39 132.92 65.175 132.61 64.875C132.3 64.565 132.145 64.16 132.145 63.66C132.145 63.07 132.385 62.575 132.865 62.175C133.355 61.775 134.015 61.575 134.845 61.575C135.935 61.575 136.83 61.925 137.53 62.625L137.005 63.405C136.495 62.795 135.775 62.49 134.845 62.49C134.355 62.49 133.965 62.6 133.675 62.82C133.385 63.03 133.24 63.3 133.24 63.63C133.24 63.92 133.395 64.15 133.705 64.32C134.015 64.48 134.385 64.61 134.815 64.71C135.255 64.8 135.695 64.91 136.135 65.04C136.575 65.17 136.95 65.4 137.26 65.73C137.57 66.05 137.725 66.47 137.725 66.99C137.725 67.63 137.475 68.155 136.975 68.565C136.475 68.975 135.775 69.18 134.875 69.18ZM141.383 69.18C140.853 69.18 140.453 69.035 140.183 68.745C139.913 68.455 139.778 68.035 139.778 67.485V62.745H138.578V61.755H139.778V59.775H140.903V61.755H142.373V62.745H140.903V67.245C140.903 67.525 140.963 67.75 141.083 67.92C141.213 68.09 141.398 68.175 141.638 68.175C141.968 68.175 142.223 68.075 142.403 67.875L142.733 68.715C142.403 69.025 141.953 69.18 141.383 69.18ZM147.232 69.18C146.152 69.18 145.267 68.83 144.577 68.13C143.887 67.42 143.542 66.5 143.542 65.37C143.542 64.31 143.882 63.415 144.562 62.685C145.242 61.945 146.092 61.575 147.112 61.575C148.182 61.575 149.027 61.945 149.647 62.685C150.277 63.415 150.592 64.34 150.592 65.46V65.745H144.727C144.777 66.455 145.037 67.05 145.507 67.53C145.977 68.01 146.587 68.25 147.337 68.25C148.237 68.25 148.982 67.945 149.572 67.335L150.112 68.07C149.372 68.81 148.412 69.18 147.232 69.18ZM149.482 64.92C149.472 64.3 149.262 63.745 148.852 63.255C148.442 62.755 147.857 62.505 147.097 62.505C146.377 62.505 145.807 62.75 145.387 63.24C144.977 63.73 144.757 64.29 144.727 64.92H149.482ZM153.539 69H152.414V58.995H153.539V69ZM156.908 69H155.783V58.995H156.908V69ZM160.982 69.18C160.452 69.18 160.052 69.035 159.782 68.745C159.512 68.455 159.377 68.035 159.377 67.485V62.745H158.177V61.755H159.377V59.775H160.502V61.755H161.972V62.745H160.502V67.245C160.502 67.525 160.562 67.75 160.682 67.92C160.812 68.09 160.997 68.175 161.237 68.175C161.567 68.175 161.822 68.075 162.002 67.875L162.332 68.715C162.002 69.025 161.552 69.18 160.982 69.18ZM173.444 69H172.319V67.98C172.019 68.32 171.639 68.605 171.179 68.835C170.729 69.065 170.249 69.18 169.739 69.18C168.199 69.18 167.429 68.41 167.429 66.87V61.755H168.554V66.525C168.554 67.125 168.689 67.55 168.959 67.8C169.239 68.05 169.644 68.175 170.174 68.175C170.594 68.175 170.999 68.07 171.389 67.86C171.789 67.65 172.099 67.39 172.319 67.08V61.755H173.444V69ZM181.705 69H180.58V64.26C180.58 63.65 180.44 63.22 180.16 62.97C179.88 62.71 179.48 62.58 178.96 62.58C178.54 62.58 178.13 62.69 177.73 62.91C177.34 63.13 177.035 63.395 176.815 63.705V69H175.69V61.755H176.815V62.805C177.095 62.475 177.47 62.19 177.94 61.95C178.41 61.7 178.895 61.575 179.395 61.575C180.935 61.575 181.705 62.355 181.705 63.915V69ZM190.327 69H189.202V67.92C188.582 68.76 187.767 69.18 186.757 69.18C185.797 69.18 185.017 68.84 184.417 68.16C183.827 67.47 183.532 66.545 183.532 65.385C183.532 64.235 183.827 63.315 184.417 62.625C185.017 61.925 185.797 61.575 186.757 61.575C187.757 61.575 188.572 62 189.202 62.85V58.995H190.327V69ZM187.027 68.175C187.467 68.175 187.887 68.065 188.287 67.845C188.687 67.625 188.992 67.355 189.202 67.035V63.75C188.992 63.42 188.682 63.145 188.272 62.925C187.872 62.695 187.457 62.58 187.027 62.58C186.317 62.58 185.752 62.845 185.332 63.375C184.912 63.895 184.702 64.565 184.702 65.385C184.702 66.205 184.912 66.875 185.332 67.395C185.752 67.915 186.317 68.175 187.027 68.175ZM198.742 69.18C197.512 69.18 196.537 68.8 195.817 68.04L196.402 67.23C196.652 67.52 196.992 67.765 197.422 67.965C197.862 68.165 198.317 68.265 198.787 68.265C199.327 68.265 199.747 68.15 200.047 67.92C200.347 67.69 200.497 67.39 200.497 67.02C200.497 66.7 200.342 66.45 200.032 66.27C199.722 66.08 199.347 65.94 198.907 65.85C198.477 65.75 198.042 65.64 197.602 65.52C197.162 65.39 196.787 65.175 196.477 64.875C196.167 64.565 196.012 64.16 196.012 63.66C196.012 63.07 196.252 62.575 196.732 62.175C197.222 61.775 197.882 61.575 198.712 61.575C199.802 61.575 200.697 61.925 201.397 62.625L200.872 63.405C200.362 62.795 199.642 62.49 198.712 62.49C198.222 62.49 197.832 62.6 197.542 62.82C197.252 63.03 197.107 63.3 197.107 63.63C197.107 63.92 197.262 64.15 197.572 64.32C197.882 64.48 198.252 64.61 198.682 64.71C199.122 64.8 199.562 64.91 200.002 65.04C200.442 65.17 200.817 65.4 201.127 65.73C201.437 66.05 201.592 66.47 201.592 66.99C201.592 67.63 201.342 68.155 200.842 68.565C200.342 68.975 199.642 69.18 198.742 69.18ZM209.18 68.085C208.53 68.815 207.665 69.18 206.585 69.18C205.505 69.18 204.635 68.815 203.975 68.085C203.325 67.355 203 66.45 203 65.37C203 64.29 203.325 63.39 203.975 62.67C204.635 61.94 205.505 61.575 206.585 61.575C207.665 61.575 208.53 61.94 209.18 62.67C209.84 63.39 210.17 64.29 210.17 65.37C210.17 66.45 209.84 67.355 209.18 68.085ZM204.815 67.365C205.255 67.905 205.845 68.175 206.585 68.175C207.325 68.175 207.91 67.905 208.34 67.365C208.77 66.815 208.985 66.15 208.985 65.37C208.985 64.59 208.77 63.93 208.34 63.39C207.91 62.85 207.325 62.58 206.585 62.58C205.845 62.58 205.255 62.855 204.815 63.405C204.385 63.945 204.17 64.6 204.17 65.37C204.17 66.15 204.385 66.815 204.815 67.365ZM221.874 69H220.749V64.08C220.749 63.08 220.304 62.58 219.414 62.58C219.054 62.58 218.694 62.69 218.334 62.91C217.974 63.13 217.694 63.39 217.494 63.69V69H216.369V64.08C216.369 63.08 215.924 62.58 215.034 62.58C214.684 62.58 214.329 62.69 213.969 62.91C213.619 63.13 213.339 63.395 213.129 63.705V69H212.004V61.755H213.129V62.805C213.309 62.525 213.624 62.25 214.074 61.98C214.524 61.71 214.989 61.575 215.469 61.575C215.999 61.575 216.429 61.7 216.759 61.95C217.089 62.2 217.309 62.525 217.419 62.925C217.639 62.565 217.974 62.25 218.424 61.98C218.874 61.71 219.349 61.575 219.849 61.575C221.199 61.575 221.874 62.305 221.874 63.765V69ZM224.673 60.72C224.473 60.72 224.298 60.65 224.148 60.51C223.998 60.36 223.923 60.18 223.923 59.97C223.923 59.76 223.998 59.58 224.148 59.43C224.298 59.28 224.473 59.205 224.673 59.205C224.883 59.205 225.063 59.28 225.213 59.43C225.363 59.58 225.438 59.76 225.438 59.97C225.438 60.18 225.363 60.36 225.213 60.51C225.063 60.65 224.883 60.72 224.673 60.72ZM225.243 69H224.118V61.755H225.243V69ZM229.317 69.18C228.787 69.18 228.387 69.035 228.117 68.745C227.847 68.455 227.712 68.035 227.712 67.485V62.745H226.512V61.755H227.712V59.775H228.837V61.755H230.307V62.745H228.837V67.245C228.837 67.525 228.897 67.75 229.017 67.92C229.147 68.09 229.332 68.175 229.572 68.175C229.902 68.175 230.157 68.075 230.337 67.875L230.667 68.715C230.337 69.025 229.887 69.18 229.317 69.18ZM241.779 69H240.654V64.26C240.654 63.65 240.514 63.22 240.234 62.97C239.954 62.71 239.554 62.58 239.034 62.58C238.614 62.58 238.204 62.69 237.804 62.91C237.414 63.13 237.109 63.395 236.889 63.705V69H235.764V61.755H236.889V62.805C237.169 62.475 237.544 62.19 238.014 61.95C238.484 61.7 238.969 61.575 239.469 61.575C241.009 61.575 241.779 62.355 241.779 63.915V69ZM249.68 69H248.555V68.175C247.945 68.845 247.145 69.18 246.155 69.18C245.485 69.18 244.895 68.965 244.385 68.535C243.875 68.105 243.62 67.52 243.62 66.78C243.62 66.02 243.87 65.435 244.37 65.025C244.88 64.605 245.475 64.395 246.155 64.395C247.185 64.395 247.985 64.725 248.555 65.385V64.08C248.555 63.6 248.385 63.225 248.045 62.955C247.705 62.685 247.265 62.55 246.725 62.55C245.875 62.55 245.135 62.885 244.505 63.555L243.98 62.775C244.75 61.975 245.715 61.575 246.875 61.575C247.705 61.575 248.38 61.775 248.9 62.175C249.42 62.575 249.68 63.19 249.68 64.02V69ZM246.56 68.37C247.46 68.37 248.125 68.07 248.555 67.47V66.105C248.125 65.505 247.46 65.205 246.56 65.205C246.04 65.205 245.61 65.355 245.27 65.655C244.94 65.945 244.775 66.325 244.775 66.795C244.775 67.255 244.94 67.635 245.27 67.935C245.61 68.225 246.04 68.37 246.56 68.37ZM255.131 69.18C254.061 69.18 253.191 68.82 252.521 68.1C251.851 67.37 251.516 66.46 251.516 65.37C251.516 64.28 251.851 63.375 252.521 62.655C253.191 61.935 254.061 61.575 255.131 61.575C256.251 61.575 257.136 61.995 257.786 62.835L257.036 63.525C256.576 62.895 255.961 62.58 255.191 62.58C254.431 62.58 253.821 62.84 253.361 63.36C252.911 63.88 252.686 64.55 252.686 65.37C252.686 66.19 252.911 66.865 253.361 67.395C253.821 67.915 254.431 68.175 255.191 68.175C255.951 68.175 256.566 67.86 257.036 67.23L257.786 67.92C257.136 68.76 256.251 69.18 255.131 69.18ZM265.392 69H264.267V64.23C264.267 63.63 264.127 63.205 263.847 62.955C263.567 62.705 263.162 62.58 262.632 62.58C262.222 62.58 261.817 62.69 261.417 62.91C261.027 63.13 260.717 63.395 260.487 63.705V69H259.362V58.995H260.487V62.805C260.767 62.475 261.142 62.19 261.612 61.95C262.082 61.7 262.572 61.575 263.082 61.575C264.622 61.575 265.392 62.345 265.392 63.885V69ZM2.25 98H1.125V87.995H2.25V98ZM7.76414 98.18C6.68414 98.18 5.79914 97.83 5.10914 97.13C4.41914 96.42 4.07414 95.5 4.07414 94.37C4.07414 93.31 4.41414 92.415 5.09414 91.685C5.77414 90.945 6.62414 90.575 7.64414 90.575C8.71414 90.575 9.55914 90.945 10.1791 91.685C10.8091 92.415 11.1241 93.34 11.1241 94.46V94.745H5.25914C5.30914 95.455 5.56914 96.05 6.03914 96.53C6.50914 97.01 7.11914 97.25 7.86914 97.25C8.76914 97.25 9.51414 96.945 10.1041 96.335L10.6441 97.07C9.90414 97.81 8.94414 98.18 7.76414 98.18ZM10.0141 93.92C10.0041 93.3 9.79414 92.745 9.38414 92.255C8.97414 91.755 8.38914 91.505 7.62914 91.505C6.90914 91.505 6.33914 91.75 5.91914 92.24C5.50914 92.73 5.28914 93.29 5.25914 93.92H10.0141ZM15.2413 98.18C14.0113 98.18 13.0363 97.8 12.3163 97.04L12.9013 96.23C13.1513 96.52 13.4913 96.765 13.9213 96.965C14.3613 97.165 14.8163 97.265 15.2863 97.265C15.8263 97.265 16.2463 97.15 16.5463 96.92C16.8463 96.69 16.9963 96.39 16.9963 96.02C16.9963 95.7 16.8413 95.45 16.5313 95.27C16.2213 95.08 15.8463 94.94 15.4063 94.85C14.9763 94.75 14.5413 94.64 14.1013 94.52C13.6613 94.39 13.2863 94.175 12.9763 93.875C12.6663 93.565 12.5113 93.16 12.5113 92.66C12.5113 92.07 12.7513 91.575 13.2313 91.175C13.7213 90.775 14.3813 90.575 15.2113 90.575C16.3013 90.575 17.1963 90.925 17.8963 91.625L17.3713 92.405C16.8613 91.795 16.1413 91.49 15.2113 91.49C14.7213 91.49 14.3313 91.6 14.0413 91.82C13.7513 92.03 13.6063 92.3 13.6063 92.63C13.6063 92.92 13.7613 93.15 14.0713 93.32C14.3813 93.48 14.7513 93.61 15.1813 93.71C15.6213 93.8 16.0613 93.91 16.5013 94.04C16.9413 94.17 17.3163 94.4 17.6263 94.73C17.9363 95.05 18.0913 95.47 18.0913 95.99C18.0913 96.63 17.8413 97.155 17.3413 97.565C16.8413 97.975 16.1413 98.18 15.2413 98.18ZM21.0439 96.035C21.2439 96.355 21.5439 96.625 21.9439 96.845C22.3539 97.065 22.7739 97.175 23.2039 97.175C23.9239 97.175 24.4939 96.915 24.9139 96.395C25.3339 95.875 25.5439 95.205 25.5439 94.385C25.5439 93.565 25.3339 92.895 24.9139 92.375C24.4939 91.845 23.9239 91.58 23.2039 91.58C22.7739 91.58 22.3539 91.695 21.9439 91.925C21.5439 92.145 21.2439 92.42 21.0439 92.75V96.035ZM21.0439 98H19.9189V87.995H21.0439V91.85C21.6739 91 22.4889 90.575 23.4889 90.575C24.4389 90.575 25.2139 90.925 25.8139 91.625C26.4139 92.315 26.7139 93.235 26.7139 94.385C26.7139 95.545 26.4139 96.47 25.8139 97.16C25.2239 97.84 24.4489 98.18 23.4889 98.18C22.4789 98.18 21.6639 97.76 21.0439 96.92V98ZM34.2019 98H33.0769V97.175C32.4669 97.845 31.6669 98.18 30.6769 98.18C30.0069 98.18 29.4169 97.965 28.9069 97.535C28.3969 97.105 28.1419 96.52 28.1419 95.78C28.1419 95.02 28.3919 94.435 28.8919 94.025C29.4019 93.605 29.9969 93.395 30.6769 93.395C31.7069 93.395 32.5069 93.725 33.0769 94.385V93.08C33.0769 92.6 32.9069 92.225 32.5669 91.955C32.2269 91.685 31.7869 91.55 31.2469 91.55C30.3969 91.55 29.6569 91.885 29.0269 92.555L28.5019 91.775C29.2719 90.975 30.2369 90.575 31.3969 90.575C32.2269 90.575 32.9019 90.775 33.4219 91.175C33.9419 91.575 34.2019 92.19 34.2019 93.02V98ZM31.0819 97.37C31.9819 97.37 32.6469 97.07 33.0769 96.47V95.105C32.6469 94.505 31.9819 94.205 31.0819 94.205C30.5619 94.205 30.1319 94.355 29.7919 94.655C29.4619 94.945 29.2969 95.325 29.2969 95.795C29.2969 96.255 29.4619 96.635 29.7919 96.935C30.1319 97.225 30.5619 97.37 31.0819 97.37ZM37.582 98H36.457V90.755H37.582V91.925C38.252 91.045 39.057 90.605 39.997 90.605V91.76C39.857 91.73 39.707 91.715 39.547 91.715C39.207 91.715 38.837 91.835 38.437 92.075C38.037 92.315 37.752 92.58 37.582 92.87V98ZM44.6782 98.18C43.5982 98.18 42.7132 97.83 42.0232 97.13C41.3332 96.42 40.9882 95.5 40.9882 94.37C40.9882 93.31 41.3282 92.415 42.0082 91.685C42.6882 90.945 43.5382 90.575 44.5582 90.575C45.6282 90.575 46.4732 90.945 47.0932 91.685C47.7232 92.415 48.0382 93.34 48.0382 94.46V94.745H42.1732C42.2232 95.455 42.4832 96.05 42.9532 96.53C43.4232 97.01 44.0332 97.25 44.7832 97.25C45.6832 97.25 46.4282 96.945 47.0182 96.335L47.5582 97.07C46.8182 97.81 45.8582 98.18 44.6782 98.18ZM46.9282 93.92C46.9182 93.3 46.7082 92.745 46.2982 92.255C45.8882 91.755 45.3032 91.505 44.5432 91.505C43.8232 91.505 43.2532 91.75 42.8332 92.24C42.4232 92.73 42.2032 93.29 42.1732 93.92H46.9282ZM50.9854 98H49.8604V90.755H50.9854V91.925C51.6554 91.045 52.4604 90.605 53.4004 90.605V91.76C53.2604 91.73 53.1104 91.715 52.9504 91.715C52.6104 91.715 52.2404 91.835 51.8404 92.075C51.4404 92.315 51.1554 92.58 50.9854 92.87V98ZM61.9637 98.18C60.3437 98.18 59.0637 97.65 58.1237 96.59L58.8587 95.645C59.7087 96.595 60.7587 97.07 62.0087 97.07C62.8187 97.07 63.4137 96.9 63.7937 96.56C64.1737 96.21 64.3637 95.805 64.3637 95.345C64.3637 94.995 64.2537 94.7 64.0337 94.46C63.8137 94.22 63.5287 94.035 63.1787 93.905C62.8387 93.765 62.4537 93.64 62.0237 93.53C61.6037 93.42 61.1837 93.3 60.7637 93.17C60.3437 93.03 59.9587 92.865 59.6087 92.675C59.2687 92.485 58.9887 92.215 58.7687 91.865C58.5487 91.515 58.4387 91.1 58.4387 90.62C58.4387 89.8 58.7637 89.135 59.4137 88.625C60.0637 88.105 60.8837 87.845 61.8737 87.845C63.3637 87.845 64.5487 88.31 65.4287 89.24L64.6787 90.155C63.9487 89.355 62.9837 88.955 61.7837 88.955C61.1837 88.955 60.6887 89.105 60.2987 89.405C59.9187 89.695 59.7287 90.075 59.7287 90.545C59.7287 90.895 59.8737 91.185 60.1637 91.415C60.4637 91.645 60.8287 91.815 61.2587 91.925C61.6987 92.035 62.1737 92.175 62.6837 92.345C63.2037 92.505 63.6787 92.68 64.1087 92.87C64.5487 93.05 64.9137 93.345 65.2037 93.755C65.5037 94.165 65.6537 94.66 65.6537 95.24C65.6537 96.06 65.3487 96.755 64.7387 97.325C64.1387 97.895 63.2137 98.18 61.9637 98.18ZM71.0378 98.18C70.0178 98.18 69.2028 97.755 68.5928 96.905V100.76H67.4678V90.755H68.5928V91.835C68.8628 91.455 69.2128 91.15 69.6428 90.92C70.0728 90.69 70.5378 90.575 71.0378 90.575C71.9978 90.575 72.7728 90.92 73.3628 91.61C73.9628 92.29 74.2628 93.21 74.2628 94.37C74.2628 95.53 73.9628 96.455 73.3628 97.145C72.7728 97.835 71.9978 98.18 71.0378 98.18ZM70.7528 97.175C71.4628 97.175 72.0278 96.915 72.4478 96.395C72.8678 95.865 73.0778 95.19 73.0778 94.37C73.0778 93.55 72.8678 92.88 72.4478 92.36C72.0278 91.84 71.4628 91.58 70.7528 91.58C70.3228 91.58 69.9028 91.695 69.4928 91.925C69.0928 92.145 68.7928 92.415 68.5928 92.735V96.005C68.7928 96.335 69.0928 96.615 69.4928 96.845C69.9028 97.065 70.3228 97.175 70.7528 97.175ZM77.1768 98H76.0518V90.755H77.1768V91.925C77.8468 91.045 78.6518 90.605 79.5918 90.605V91.76C79.4518 91.73 79.3018 91.715 79.1418 91.715C78.8018 91.715 78.4318 91.835 78.0318 92.075C77.6318 92.315 77.3468 92.58 77.1768 92.87V98ZM86.6579 98H85.5329V97.175C84.9229 97.845 84.1229 98.18 83.1329 98.18C82.4629 98.18 81.8729 97.965 81.3629 97.535C80.8529 97.105 80.5979 96.52 80.5979 95.78C80.5979 95.02 80.8479 94.435 81.3479 94.025C81.8579 93.605 82.4529 93.395 83.1329 93.395C84.1629 93.395 84.9629 93.725 85.5329 94.385V93.08C85.5329 92.6 85.3629 92.225 85.0229 91.955C84.6829 91.685 84.2429 91.55 83.7029 91.55C82.8529 91.55 82.1129 91.885 81.4829 92.555L80.9579 91.775C81.7279 90.975 82.6929 90.575 83.8529 90.575C84.6829 90.575 85.3579 90.775 85.8779 91.175C86.3979 91.575 86.6579 92.19 86.6579 93.02V98ZM83.5379 97.37C84.4379 97.37 85.1029 97.07 85.5329 96.47V95.105C85.1029 94.505 84.4379 94.205 83.5379 94.205C83.0179 94.205 82.5879 94.355 82.2479 94.655C81.9179 94.945 81.7529 95.325 81.7529 95.795C81.7529 96.255 81.9179 96.635 82.2479 96.935C82.5879 97.225 83.0179 97.37 83.5379 97.37ZM92.1081 98.18C91.0381 98.18 90.1681 97.82 89.4981 97.1C88.8281 96.37 88.4931 95.46 88.4931 94.37C88.4931 93.28 88.8281 92.375 89.4981 91.655C90.1681 90.935 91.0381 90.575 92.1081 90.575C93.2281 90.575 94.1131 90.995 94.7631 91.835L94.0131 92.525C93.5531 91.895 92.9381 91.58 92.1681 91.58C91.4081 91.58 90.7981 91.84 90.3381 92.36C89.8881 92.88 89.6631 93.55 89.6631 94.37C89.6631 95.19 89.8881 95.865 90.3381 96.395C90.7981 96.915 91.4081 97.175 92.1681 97.175C92.9281 97.175 93.5431 96.86 94.0131 96.23L94.7631 96.92C94.1131 97.76 93.2281 98.18 92.1081 98.18ZM102.37 98H101.245V93.23C101.245 92.63 101.105 92.205 100.825 91.955C100.545 91.705 100.14 91.58 99.6098 91.58C99.1998 91.58 98.7948 91.69 98.3948 91.91C98.0048 92.13 97.6948 92.395 97.4648 92.705V98H96.3398V87.995H97.4648V91.805C97.7448 91.475 98.1198 91.19 98.5898 90.95C99.0598 90.7 99.5498 90.575 100.06 90.575C101.6 90.575 102.37 91.345 102.37 92.885V98ZM107.886 98.18C106.806 98.18 105.921 97.83 105.231 97.13C104.541 96.42 104.196 95.5 104.196 94.37C104.196 93.31 104.536 92.415 105.216 91.685C105.896 90.945 106.746 90.575 107.766 90.575C108.836 90.575 109.681 90.945 110.301 91.685C110.931 92.415 111.246 93.34 111.246 94.46V94.745H105.381C105.431 95.455 105.691 96.05 106.161 96.53C106.631 97.01 107.241 97.25 107.991 97.25C108.891 97.25 109.636 96.945 110.226 96.335L110.766 97.07C110.026 97.81 109.066 98.18 107.886 98.18ZM110.136 93.92C110.126 93.3 109.916 92.745 109.506 92.255C109.096 91.755 108.511 91.505 107.751 91.505C107.031 91.505 106.461 91.75 106.041 92.24C105.631 92.73 105.411 93.29 105.381 93.92H110.136ZM122.591 98H121.466V97.175C120.856 97.845 120.056 98.18 119.066 98.18C118.396 98.18 117.806 97.965 117.296 97.535C116.786 97.105 116.531 96.52 116.531 95.78C116.531 95.02 116.781 94.435 117.281 94.025C117.791 93.605 118.386 93.395 119.066 93.395C120.096 93.395 120.896 93.725 121.466 94.385V93.08C121.466 92.6 121.296 92.225 120.956 91.955C120.616 91.685 120.176 91.55 119.636 91.55C118.786 91.55 118.046 91.885 117.416 92.555L116.891 91.775C117.661 90.975 118.626 90.575 119.786 90.575C120.616 90.575 121.291 90.775 121.811 91.175C122.331 91.575 122.591 92.19 122.591 93.02V98ZM119.471 97.37C120.371 97.37 121.036 97.07 121.466 96.47V95.105C121.036 94.505 120.371 94.205 119.471 94.205C118.951 94.205 118.521 94.355 118.181 94.655C117.851 94.945 117.686 95.325 117.686 95.795C117.686 96.255 117.851 96.635 118.181 96.935C118.521 97.225 118.951 97.37 119.471 97.37ZM130.861 98H129.736V96.98C129.436 97.32 129.056 97.605 128.596 97.835C128.146 98.065 127.666 98.18 127.156 98.18C125.616 98.18 124.846 97.41 124.846 95.87V90.755H125.971V95.525C125.971 96.125 126.106 96.55 126.376 96.8C126.656 97.05 127.061 97.175 127.591 97.175C128.011 97.175 128.416 97.07 128.806 96.86C129.206 96.65 129.516 96.39 129.736 96.08V90.755H130.861V98ZM135.402 98.18C134.172 98.18 133.197 97.8 132.477 97.04L133.062 96.23C133.312 96.52 133.652 96.765 134.082 96.965C134.522 97.165 134.977 97.265 135.447 97.265C135.987 97.265 136.407 97.15 136.707 96.92C137.007 96.69 137.157 96.39 137.157 96.02C137.157 95.7 137.002 95.45 136.692 95.27C136.382 95.08 136.007 94.94 135.567 94.85C135.137 94.75 134.702 94.64 134.262 94.52C133.822 94.39 133.447 94.175 133.137 93.875C132.827 93.565 132.672 93.16 132.672 92.66C132.672 92.07 132.912 91.575 133.392 91.175C133.882 90.775 134.542 90.575 135.372 90.575C136.462 90.575 137.357 90.925 138.057 91.625L137.532 92.405C137.022 91.795 136.302 91.49 135.372 91.49C134.882 91.49 134.492 91.6 134.202 91.82C133.912 92.03 133.767 92.3 133.767 92.63C133.767 92.92 133.922 93.15 134.232 93.32C134.542 93.48 134.912 93.61 135.342 93.71C135.782 93.8 136.222 93.91 136.662 94.04C137.102 94.17 137.477 94.4 137.787 94.73C138.097 95.05 138.252 95.47 138.252 95.99C138.252 96.63 138.002 97.155 137.502 97.565C137.002 97.975 136.302 98.18 135.402 98.18ZM142.375 98.18C141.145 98.18 140.17 97.8 139.45 97.04L140.035 96.23C140.285 96.52 140.625 96.765 141.055 96.965C141.495 97.165 141.95 97.265 142.42 97.265C142.96 97.265 143.38 97.15 143.68 96.92C143.98 96.69 144.13 96.39 144.13 96.02C144.13 95.7 143.975 95.45 143.665 95.27C143.355 95.08 142.98 94.94 142.54 94.85C142.11 94.75 141.675 94.64 141.235 94.52C140.795 94.39 140.42 94.175 140.11 93.875C139.8 93.565 139.645 93.16 139.645 92.66C139.645 92.07 139.885 91.575 140.365 91.175C140.855 90.775 141.515 90.575 142.345 90.575C143.435 90.575 144.33 90.925 145.03 91.625L144.505 92.405C143.995 91.795 143.275 91.49 142.345 91.49C141.855 91.49 141.465 91.6 141.175 91.82C140.885 92.03 140.74 92.3 140.74 92.63C140.74 92.92 140.895 93.15 141.205 93.32C141.515 93.48 141.885 93.61 142.315 93.71C142.755 93.8 143.195 93.91 143.635 94.04C144.075 94.17 144.45 94.4 144.76 94.73C145.07 95.05 145.225 95.47 145.225 95.99C145.225 96.63 144.975 97.155 144.475 97.565C143.975 97.975 143.275 98.18 142.375 98.18ZM147.608 89.72C147.408 89.72 147.233 89.65 147.083 89.51C146.933 89.36 146.858 89.18 146.858 88.97C146.858 88.76 146.933 88.58 147.083 88.43C147.233 88.28 147.408 88.205 147.608 88.205C147.818 88.205 147.998 88.28 148.148 88.43C148.298 88.58 148.373 88.76 148.373 88.97C148.373 89.18 148.298 89.36 148.148 89.51C147.998 89.65 147.818 89.72 147.608 89.72ZM148.178 98H147.053V90.755H148.178V98ZM153.692 98.18C152.612 98.18 151.727 97.83 151.037 97.13C150.347 96.42 150.002 95.5 150.002 94.37C150.002 93.31 150.342 92.415 151.022 91.685C151.702 90.945 152.552 90.575 153.572 90.575C154.642 90.575 155.487 90.945 156.107 91.685C156.737 92.415 157.052 93.34 157.052 94.46V94.745H151.187C151.237 95.455 151.497 96.05 151.967 96.53C152.437 97.01 153.047 97.25 153.797 97.25C154.697 97.25 155.442 96.945 156.032 96.335L156.572 97.07C155.832 97.81 154.872 98.18 153.692 98.18ZM155.942 93.92C155.932 93.3 155.722 92.745 155.312 92.255C154.902 91.755 154.317 91.505 153.557 91.505C152.837 91.505 152.267 91.75 151.847 92.24C151.437 92.73 151.217 93.29 151.187 93.92H155.942ZM164.904 98H163.779V93.23C163.779 92.63 163.639 92.205 163.359 91.955C163.079 91.705 162.674 91.58 162.144 91.58C161.734 91.58 161.329 91.69 160.929 91.91C160.539 92.13 160.229 92.395 159.999 92.705V98H158.874V87.995H159.999V91.805C160.279 91.475 160.654 91.19 161.124 90.95C161.594 90.7 162.084 90.575 162.594 90.575C164.134 90.575 164.904 91.345 164.904 92.885V98ZM168.98 98.18C168.45 98.18 168.05 98.035 167.78 97.745C167.51 97.455 167.375 97.035 167.375 96.485V91.745H166.175V90.755H167.375V88.775H168.5V90.755H169.97V91.745H168.5V96.245C168.5 96.525 168.56 96.75 168.68 96.92C168.81 97.09 168.995 97.175 169.235 97.175C169.565 97.175 169.82 97.075 170 96.875L170.33 97.715C170 98.025 169.55 98.18 168.98 98.18ZM172.745 97.91C172.585 98.07 172.39 98.15 172.16 98.15C171.93 98.15 171.735 98.07 171.575 97.91C171.415 97.75 171.335 97.555 171.335 97.325C171.335 97.095 171.415 96.9 171.575 96.74C171.735 96.58 171.93 96.5 172.16 96.5C172.39 96.5 172.585 96.58 172.745 96.74C172.905 96.9 172.985 97.095 172.985 97.325C172.985 97.555 172.905 97.75 172.745 97.91Z" fill="#7A787D"/>
</svg>
